<?xml version="1.0" standalone="no"?>
<!DOCTYPE svg PUBLIC "-//W3C//DTD SVG 20010904//EN"
 "http://www.w3.org/TR/2001/REC-SVG-20010904/DTD/svg10.dtd">
<svg version="1.0" xmlns="http://www.w3.org/2000/svg"
 width="640.000000pt" height="640.000000pt" viewBox="0 0 640.000000 640.000000"
 preserveAspectRatio="xMidYMid meet">

<g transform="translate(0.000000,640.000000) scale(0.100000,-0.100000)"
fill="#000000" stroke="none">
<path d="M2855 6380 c-253 -33 -451 -74 -655 -135 -41 -13 -100 -28 -130 -34
-66 -14 -450 -204 -513 -254 -23 -19 -94 -69 -157 -112 -106 -73 -151 -109
-369 -295 -90 -77 -238 -233 -294 -310 -21 -30 -61 -75 -87 -100 -70 -65 -227
-308 -328 -505 -70 -138 -172 -399 -197 -505 -135 -577 -159 -1077 -74 -1525
7 -33 13 -71 14 -85 1 -14 14 -55 28 -92 15 -36 27 -70 27 -75 0 -14 86 -273
105 -318 16 -37 119 -252 209 -435 42 -86 94 -171 123 -203 17 -18 62 -86 118
-178 62 -101 254 -314 368 -409 43 -36 95 -82 114 -102 20 -21 42 -38 49 -38
7 0 31 -16 55 -35 23 -20 63 -48 88 -63 25 -14 66 -41 90 -60 24 -18 60 -42
80 -53 20 -11 59 -34 86 -51 28 -17 91 -52 140 -78 50 -25 99 -50 110 -56 18
-10 81 -40 195 -94 108 -50 373 -127 525 -150 134 -21 322 -29 695 -29 368 -1
432 3 558 34 228 55 335 85 348 96 6 5 42 18 80 28 110 30 160 50 311 123 78
37 144 68 147 68 5 0 64 36 176 109 30 19 111 79 180 132 69 53 136 102 149
109 30 15 261 221 261 232 0 4 6 8 13 8 14 0 57 52 57 69 0 5 28 35 63 66 106
99 297 338 297 374 0 5 17 38 38 72 21 35 51 88 65 117 58 113 81 158 88 172
34 64 89 196 104 245 9 33 23 76 29 95 30 81 46 141 66 238 11 57 27 120 35
140 13 36 37 161 55 292 5 36 9 107 10 159 l0 94 -26 -24 c-22 -21 -35 -24
-102 -24 -62 0 -77 3 -77 15 0 11 16 17 61 21 67 6 84 13 84 34 0 26 -43 45
-100 45 -80 1 -42 18 47 21 59 3 75 0 92 -15 l21 -19 -1 64 c-1 35 -3 57 -6
47 -5 -20 -38 -33 -122 -48 -38 -7 -67 -8 -73 -2 -15 15 3 42 28 42 43 0 94
27 94 49 0 32 -35 45 -85 32 -24 -6 -46 -11 -49 -11 -9 0 -7 50 2 51 4 0 40 1
80 2 60 1 77 -3 102 -21 l30 -23 0 90 c0 49 -9 145 -20 213 -19 116 -33 182
-80 389 -24 107 -117 367 -199 554 -33 77 -61 145 -61 152 0 17 -39 82 -71
120 -15 17 -30 41 -34 52 -3 12 -10 21 -15 21 -5 0 -18 17 -29 39 -21 39 -172
248 -194 266 -7 6 -39 42 -72 80 -75 89 -392 402 -425 420 -14 8 -44 32 -68
55 -76 71 -214 168 -327 230 -44 24 -100 54 -124 67 -56 31 -194 88 -286 119
-38 13 -101 35 -140 49 -158 58 -468 138 -588 151 -29 3 -85 9 -125 15 -125
16 -529 9 -687 -11z m532 -30 c19 -36 13 -164 -7 -168 -12 -2 -14 6 -12 42 3
35 -1 49 -17 65 -12 12 -26 21 -31 21 -15 0 -30 -45 -30 -91 0 -34 -3 -39 -24
-39 -29 0 -39 29 -30 94 12 88 118 141 151 76z m-237 10 c22 -12 38 -58 42
-125 3 -47 2 -50 -23 -53 -23 -3 -27 1 -32 31 -8 52 -34 107 -51 107 -26 0
-39 -39 -32 -92 l7 -49 -33 3 c-33 3 -33 3 -36 61 -5 88 27 125 106 126 18 1
42 -3 52 -9z m406 -31 c29 -32 21 -169 -10 -169 -10 0 -12 9 -6 38 9 49 -3 82
-29 82 -25 0 -41 -28 -41 -74 0 -30 -4 -36 -21 -36 -21 0 -22 3 -16 63 6 54
11 66 39 90 39 32 59 34 84 6z m181 15 c39 -11 55 -97 31 -175 -8 -27 -17 -39
-30 -39 -15 0 -17 5 -11 28 11 45 8 91 -8 107 -22 23 -57 -6 -64 -53 -12 -65
-14 -70 -36 -65 -20 6 -21 11 -14 67 8 75 22 107 55 123 28 14 44 16 77 7z
m-823 -23 c21 -23 45 -86 46 -119 0 -35 -44 -27 -48 9 -2 15 -12 35 -23 45
-31 28 -53 8 -57 -50 -6 -87 -42 -44 -42 51 0 67 83 110 124 64z m-166 -34 c6
-12 13 -45 16 -73 5 -41 3 -53 -9 -58 -10 -4 -15 1 -15 15 0 32 -28 89 -43 89
-21 0 -28 -25 -21 -70 4 -24 2 -40 -6 -45 -16 -10 -17 -7 -25 57 -7 55 -6 59
23 87 33 34 63 33 80 -2z m1214 -4 c21 -19 24 -75 6 -137 -23 -83 -51 -85 -42
-3 7 62 -10 93 -44 83 -15 -5 -25 -21 -32 -49 -19 -74 -21 -76 -48 -59 -10 7
-9 23 4 81 14 62 21 76 48 92 35 22 78 19 108 -8z m-1384 -5 c40 -44 60 -148
27 -148 -9 0 -15 9 -15 24 0 14 -11 38 -25 53 -25 28 -25 28 -40 8 -11 -14
-14 -31 -9 -61 4 -27 2 -44 -6 -49 -20 -12 -31 10 -37 72 -6 66 6 99 40 113
34 13 42 12 65 -12z m-193 -34 c36 -17 62 -66 67 -124 4 -51 -22 -46 -40 8
-15 45 -40 66 -67 55 -14 -5 -16 -15 -12 -52 3 -26 7 -53 9 -61 2 -7 -5 -16
-15 -18 -12 -2 -22 9 -37 43 -27 63 -25 97 6 134 29 35 42 37 89 15z m1764
-17 c17 -14 9 -94 -15 -154 -18 -45 -21 -48 -43 -34 -10 6 -11 13 -2 29 6 11
11 41 11 66 0 36 -4 46 -20 51 -29 9 -37 0 -56 -60 -10 -30 -21 -55 -25 -55
-19 0 -19 25 1 84 19 57 25 66 58 80 37 15 66 13 91 -7z m-1931 -70 c17 -17
32 -41 32 -53 0 -13 5 -26 10 -29 19 -12 11 -45 -10 -45 -11 0 -20 7 -20 15 0
25 -42 75 -62 75 -27 0 -32 -24 -16 -75 13 -39 13 -45 -1 -50 -19 -7 -38 16
-51 65 -17 61 -12 86 20 114 35 29 51 26 98 -17z m2086 22 c34 -27 33 -55 -4
-129 -22 -43 -36 -60 -50 -60 -25 0 -25 5 -1 38 28 41 34 78 15 96 -8 9 -20
14 -25 10 -13 -8 -49 -80 -49 -99 0 -9 -9 -15 -21 -15 -13 0 -19 5 -17 13 3 6
13 35 22 62 18 54 31 74 61 92 28 17 39 16 69 -8z m-776 -38 c31 -6 111 -20
177 -31 118 -19 248 -45 273 -55 8 -3 -3 -20 -33 -48 -44 -43 -51 -62 -46
-123 l1 -22 -86 25 -87 24 -26 -25 c-26 -24 -122 -76 -215 -116 -46 -19 -50
-20 -75 -4 -38 25 -149 141 -156 164 -6 18 -16 20 -95 20 l-88 0 15 31 c21 43
11 95 -27 134 -16 17 -30 35 -30 39 0 11 426 -1 498 -13z m-598 0 c0 -5 -7
-11 -14 -14 -25 -10 -40 -85 -27 -129 7 -21 16 -38 21 -38 6 0 10 -4 10 -9 0
-4 -27 -12 -61 -15 -33 -4 -72 -12 -86 -17 -24 -9 -24 -11 -10 -27 15 -16 15
-21 1 -47 -23 -45 -116 -135 -139 -135 -11 0 -75 19 -142 42 -116 41 -123 42
-168 30 -26 -7 -65 -21 -88 -32 -51 -25 -61 -25 -54 0 13 49 -50 170 -89 170
-25 0 -15 15 19 29 39 15 180 62 262 86 33 10 94 28 135 41 112 35 163 45 290
59 63 7 121 13 128 14 6 0 12 -3 12 -8z m1558 -34 c20 -18 22 -27 16 -67 -4
-25 -16 -67 -28 -93 -19 -44 -22 -47 -40 -34 -17 12 -18 18 -8 47 17 47 15 89
-4 97 -19 7 -58 -29 -74 -68 -12 -29 -33 -38 -45 -19 -10 15 61 145 87 158 29
14 67 6 96 -21z m-2460 -2 c28 -24 52 -63 67 -112 5 -20 3 -23 -19 -23 -14 0
-26 6 -26 13 0 7 -11 29 -25 50 -24 35 -65 51 -79 29 -2 -4 5 -34 16 -67 19
-57 19 -60 1 -72 -15 -12 -20 -11 -30 3 -17 23 -36 121 -29 149 15 58 74 72
124 30z m2625 -71 c13 -18 17 -34 12 -57 -8 -39 -65 -127 -82 -127 -16 0 -16
1 1 36 8 16 18 48 22 72 5 35 4 42 -10 42 -17 0 -76 -74 -76 -97 0 -7 -5 -13
-11 -13 -6 0 -9 6 -6 13 2 6 10 39 17 72 15 69 30 85 79 85 27 -1 41 -7 54
-26z m-2805 -20 c22 -15 61 -85 62 -111 0 -25 -26 -11 -53 28 -31 45 -55 58
-68 38 -13 -19 -2 -59 23 -86 21 -22 17 -43 -7 -43 -20 0 -75 99 -75 134 0 43
27 69 64 62 17 -4 41 -13 54 -22z m2366 -39 c34 -14 69 -25 78 -25 8 0 26 -8
39 -18 13 -11 41 -22 62 -25 37 -6 230 -96 292 -137 17 -11 52 -31 79 -46 62
-33 156 -103 156 -116 0 -6 -7 -8 -15 -4 -37 14 -125 -78 -125 -131 0 -22 -15
-32 -22 -15 -1 5 -40 30 -86 56 l-82 48 -109 -22 c-59 -12 -128 -20 -152 -18
l-44 3 -32 80 c-18 44 -33 96 -33 116 0 35 -3 38 -47 54 -27 9 -65 22 -85 28
-42 12 -47 21 -19 36 38 21 49 92 24 158 -5 13 -1 15 26 10 17 -4 60 -18 95
-32z m-2538 -20 c26 -18 96 -133 88 -146 -10 -17 -22 -9 -41 29 -17 32 -25 37
-54 37 -44 0 -49 -27 -14 -79 24 -36 25 -39 8 -51 -19 -14 -28 -6 -73 69 -22
36 -22 42 -11 85 7 25 17 51 23 58 14 17 49 16 74 -2z m3140 -10 c20 -31 14
-48 -47 -125 -40 -51 -64 -57 -39 -9 20 35 28 75 20 89 -13 21 -44 2 -64 -40
-12 -25 -26 -40 -38 -40 -35 0 -14 49 56 128 29 32 90 31 112 -3z m145 -71
c22 -20 25 -61 5 -83 -8 -9 -26 -40 -41 -68 -27 -55 -31 -58 -53 -44 -11 7 -9
18 12 57 53 99 14 133 -50 45 -23 -32 -40 -48 -50 -44 -25 9 -15 37 38 102 49
59 54 63 86 57 19 -3 43 -13 53 -22z m-3001 -3 c-5 -11 -10 -44 -10 -75 0 -52
2 -56 42 -90 23 -20 40 -37 37 -39 -2 -1 -34 -17 -71 -34 -66 -32 -67 -33 -83
-90 -30 -102 -48 -147 -77 -195 -27 -44 -32 -47 -83 -53 -68 -9 -162 2 -193
21 -22 14 -26 13 -58 -11 -20 -15 -38 -33 -41 -40 -2 -8 -15 -21 -29 -29 -23
-16 -24 -15 -52 41 -21 45 -37 63 -68 78 -21 11 -41 22 -44 23 -15 11 157 149
325 261 44 30 82 57 85 60 15 19 142 95 263 158 74 39 70 38 57 14z m1354 -48
c39 -38 72 -73 74 -79 2 -6 -15 -16 -37 -22 -58 -18 -264 -43 -273 -34 -8 8 8
34 90 136 30 36 59 66 65 66 6 0 42 -30 81 -67z m498 -93 c43 -68 78 -128 78
-133 0 -25 -282 48 -372 96 -32 17 -58 33 -58 36 0 3 48 28 108 55 59 28 116
56 127 63 11 7 24 12 29 10 5 -2 45 -59 88 -127z m-2257 76 c47 -53 61 -84 46
-99 -10 -10 -16 -7 -29 13 -23 35 -59 70 -71 70 -6 0 -15 -9 -21 -20 -12 -22
-2 -49 32 -87 20 -21 17 -43 -5 -43 -6 0 -33 21 -59 47 -58 57 -62 86 -18 133
26 28 35 32 63 26 19 -3 44 -20 62 -40z m1321 -8 c93 -85 114 -106 114 -115 0
-10 -186 -9 -257 1 -29 4 -53 10 -53 12 0 8 125 154 132 154 4 0 33 -24 64
-52z m2210 -22 c28 -28 17 -85 -26 -143 -23 -29 -45 -53 -50 -53 -21 0 -19 22
5 54 33 44 38 91 10 91 -14 0 -29 -16 -49 -53 -25 -48 -30 -52 -43 -39 -13 13
-12 20 7 58 12 24 34 59 47 77 22 29 30 33 55 28 16 -3 36 -12 44 -20z m-2619
-46 c42 -16 82 -30 88 -30 6 0 19 -6 29 -13 16 -11 12 -17 -41 -56 -72 -53
-135 -86 -216 -111 -34 -11 -63 -20 -65 -20 -5 0 9 41 33 95 21 48 32 75 54
138 13 34 22 34 118 -3z m-1116 -8 c9 -4 40 -29 69 -55 49 -44 52 -49 37 -64
-15 -15 -19 -13 -57 20 -71 65 -112 35 -50 -36 35 -41 36 -43 11 -56 -16 -9
-26 -2 -66 46 -38 47 -46 63 -44 92 2 27 9 39 29 48 28 14 47 15 71 5z m2143
-42 c36 -22 71 -40 78 -40 7 0 42 -11 78 -24 36 -12 85 -26 110 -30 79 -12 79
-20 -1 -61 -41 -20 -81 -43 -89 -50 -8 -7 -34 -22 -57 -34 -24 -12 -43 -25
-43 -29 0 -4 38 -20 85 -36 47 -15 83 -32 79 -37 -3 -5 -24 -17 -46 -26 -45
-18 -45 -18 -10 -113 11 -30 19 -56 17 -58 -2 -2 -50 4 -107 12 -180 28 -241
36 -308 42 -36 3 -74 7 -86 9 -22 5 -114 115 -114 137 0 8 19 32 43 55 45 43
103 61 139 42 13 -7 20 -6 24 4 3 9 -32 52 -90 113 -52 54 -94 99 -93 100 1 0
47 7 102 14 55 7 123 20 150 30 69 24 65 25 139 -20z m719 -32 c13 -35 27 -76
31 -92 l7 -29 -66 7 c-83 8 -217 35 -228 46 -5 4 7 17 27 29 42 26 188 101
197 101 4 0 18 -28 32 -62z m1008 14 c42 -38 36 -62 -35 -136 -47 -49 -55 -54
-61 -37 -3 12 4 33 20 56 28 42 33 80 11 88 -19 8 -42 -11 -69 -55 -16 -27
-26 -35 -36 -29 -11 7 -7 18 19 56 65 95 96 106 151 57z m-2383 -8 c78 -4 142
-9 142 -11 0 -3 -40 -48 -90 -101 -49 -52 -90 -102 -90 -109 0 -15 16 -15 113
-4 74 8 84 5 64 -18 -8 -9 -23 -32 -35 -52 l-22 -36 45 -61 c25 -34 45 -66 45
-72 0 -5 -19 -10 -42 -11 -58 0 -111 -11 -248 -48 -63 -17 -138 -37 -166 -43
l-50 -11 -57 43 c-61 46 -60 40 -34 120 15 49 27 60 83 74 68 17 67 37 -3 60
-66 21 -188 80 -198 95 -3 6 17 17 45 25 71 21 176 78 240 131 45 37 60 44 85
40 17 -3 94 -8 173 -11z m-1576 -85 c26 -28 48 -57 48 -65 0 -28 -22 -24 -55
11 -43 47 -71 44 -67 -5 2 -20 13 -45 28 -61 22 -23 23 -27 9 -39 -14 -11 -23
-5 -65 41 -42 47 -49 60 -50 97 0 39 3 44 33 57 52 23 68 18 119 -36z m3748
-16 c33 -22 211 -177 276 -239 28 -27 64 -61 80 -76 81 -75 254 -289 254 -315
0 -4 -23 -9 -52 -11 -66 -3 -110 -28 -122 -70 -5 -18 -12 -32 -15 -32 -3 0
-21 22 -39 49 -19 27 -47 62 -63 77 -24 23 -32 26 -39 14 -7 -12 -24 -11 -116
8 -59 12 -111 25 -115 29 -9 9 -40 253 -34 263 7 11 -67 87 -92 94 -11 4 -26
13 -33 21 -9 11 -5 16 16 27 41 20 66 74 61 131 -5 52 -2 54 33 30z m324 -10
c14 -10 25 -22 25 -28 1 -34 -75 -145 -98 -145 -22 0 -21 22 4 57 28 43 32 68
10 77 -9 3 -25 -8 -42 -29 -27 -34 -53 -46 -53 -25 0 11 67 102 83 112 15 9
43 2 71 -19z m-3226 -67 c28 -10 52 -21 52 -26 0 -11 -77 -55 -131 -75 -169
-64 -227 -79 -217 -57 2 4 15 30 29 57 15 28 30 61 34 75 3 14 13 44 22 66
l15 42 71 -32 c40 -18 96 -41 125 -50z m1989 48 c40 -8 90 -14 113 -14 37 0
46 -6 143 -102 59 -60 130 -120 169 -143 37 -22 67 -43 68 -47 0 -4 -21 -10
-47 -13 -223 -29 -281 -44 -237 -62 41 -17 174 -95 174 -102 0 -5 -33 -15 -72
-23 l-73 -14 3 -61 c5 -78 -2 -90 -36 -66 -50 32 -229 125 -298 154 -164 69
-157 65 -171 111 -27 90 -28 87 42 119 64 29 64 29 129 14 36 -8 72 -18 82
-22 15 -5 16 -1 9 33 -4 21 -10 41 -14 44 -8 6 -121 205 -121 213 0 6 41 1
137 -19z m497 -71 c9 -43 24 -111 33 -150 9 -40 14 -76 11 -79 -15 -14 -242
153 -296 217 -44 53 -41 59 29 60 35 0 87 7 114 14 93 24 92 25 109 -62z
m-3500 19 c33 -20 92 -89 83 -98 -3 -4 -29 10 -57 31 -54 40 -84 41 -78 3 2
-16 19 -32 51 -49 43 -23 46 -27 32 -39 -14 -12 -22 -11 -53 6 -67 35 -102 73
-102 109 0 61 55 77 124 37z m2015 -49 c-8 -10 -26 -30 -41 -45 -34 -31 -35
-49 -7 -74 22 -20 79 -98 79 -109 0 -3 -21 -5 -47 -3 -46 3 -49 5 -91 66 -50
71 -50 86 -2 145 28 33 37 37 77 37 42 0 44 -1 32 -17z m2345 -4 c39 -31 34
-62 -20 -119 -26 -28 -51 -50 -56 -50 -20 0 -17 30 6 65 14 21 26 46 26 57 0
31 -41 18 -65 -19 -22 -35 -42 -42 -51 -18 -7 17 29 65 66 89 34 21 62 20 94
-5z m-3300 -86 c-18 -49 -45 -110 -59 -136 -15 -26 -25 -51 -21 -54 3 -3 42
13 87 35 89 46 113 52 105 25 -19 -66 -27 -107 -22 -118 2 -7 27 -25 55 -41
50 -26 64 -44 38 -44 -8 0 -38 -19 -69 -42 -30 -24 -81 -59 -112 -78 -31 -19
-95 -63 -143 -97 -48 -35 -96 -63 -107 -63 -11 0 -46 7 -78 16 -51 15 -58 20
-60 43 -5 84 -4 85 37 123 22 21 46 38 53 38 8 0 12 8 10 17 -3 15 -17 17
-103 19 -110 2 -188 12 -183 24 2 4 30 37 62 72 32 35 78 96 101 134 35 57 47
70 71 72 55 7 313 108 339 133 5 5 14 9 21 9 7 0 -1 -33 -22 -87z m-1158 1
c27 -14 57 -34 68 -44 18 -18 18 -18 -7 -34 -24 -16 -27 -16 -62 9 -21 14 -46
25 -56 25 -32 0 -22 -36 16 -60 40 -25 41 -27 19 -51 -16 -17 -18 -17 -60 12
-51 35 -64 55 -64 100 0 70 60 88 146 43z m2848 -16 c59 -17 64 -25 20 -37
-22 -6 -50 -20 -64 -30 l-24 -19 17 -55 c22 -69 22 -69 -10 -61 -40 9 -48 20
-77 96 l-25 68 32 16 c26 14 63 28 86 33 2 1 22 -4 45 -11z m1748 -25 c36 -33
16 -80 -56 -131 -37 -27 -46 -30 -56 -17 -10 12 -5 23 25 60 60 73 28 104 -41
40 -26 -24 -41 -32 -48 -25 -11 11 45 76 79 90 27 11 76 3 97 -17z m-4462 -45
c0 -40 38 -84 93 -108 l52 -23 -57 -59 -58 -59 0 -98 c0 -121 -6 -154 -32
-170 -29 -18 -206 -60 -228 -54 -13 3 -20 0 -20 -9 0 -7 -21 -49 -46 -91 l-46
-78 -24 33 c-31 42 -60 57 -106 58 -60 0 -55 15 70 215 99 158 248 345 352
441 37 35 50 35 50 2z m613 16 c3 -3 -4 -22 -15 -42 -33 -60 -177 -226 -187
-216 -2 2 -6 63 -8 134 l-3 130 103 0 c57 0 106 -3 110 -6z m657 2 c0 -2 -9
-25 -20 -51 -11 -26 -20 -51 -20 -55 0 -5 25 -28 55 -52 30 -23 55 -46 55 -49
0 -4 -19 -12 -43 -19 -45 -12 -54 -9 -136 41 -26 17 -26 18 0 100 18 58 25 68
53 77 35 11 56 14 56 8z m2600 -34 c0 -5 7 -57 15 -117 9 -59 13 -110 11 -113
-10 -9 -136 40 -194 76 -57 35 -148 110 -140 116 1 2 55 12 118 23 125 23 190
28 190 15z m-4150 -37 c28 -14 50 -29 50 -33 0 -4 -24 -6 -53 -4 -41 3 -57 0
-67 -13 -15 -18 -8 -26 62 -76 39 -28 11 -34 -43 -9 -58 28 -69 43 -69 97 0
69 37 80 120 38z m4844 -11 c32 -31 30 -61 -7 -111 -19 -27 -45 -57 -57 -68
-21 -19 -22 -19 -36 -1 -12 17 -9 23 21 59 62 72 31 110 -35 42 -26 -26 -37
-32 -47 -24 -23 20 -14 37 40 78 56 43 96 51 121 25z m-2492 -65 c13 -26 16
-48 11 -87 -7 -63 -23 -69 -23 -9 0 51 -12 72 -35 63 -14 -5 -17 -16 -13 -61
3 -34 1 -54 -5 -52 -6 2 -11 19 -12 37 -1 19 -5 54 -9 77 -8 39 -6 42 20 57
38 20 46 17 66 -25z m163 24 c33 -32 37 -70 19 -160 -8 -42 -22 -23 -26 37 -5
71 -28 105 -53 79 -9 -8 -18 -39 -22 -67 -4 -34 -10 -52 -19 -52 -10 0 -14 17
-14 65 0 57 3 69 25 90 28 29 66 32 90 8z m-308 -15 c27 -30 39 -161 14 -156
-11 2 -19 21 -24 56 -6 36 -15 55 -29 63 -27 15 -32 7 -36 -66 -4 -64 -17 -86
-26 -42 -18 88 -12 139 18 159 22 15 63 8 83 -14z m-2152 2 c3 -6 -1 -7 -9 -4
-18 7 -21 14 -7 14 6 0 13 -4 16 -10z m1980 -10 c11 -13 20 -41 23 -75 8 -100
-22 -148 -34 -55 -9 65 -29 83 -56 50 -16 -20 -19 -33 -14 -72 4 -27 3 -48 -3
-48 -14 0 -22 30 -28 106 -5 76 -2 83 52 102 41 14 40 14 60 -8z m640 0 c29
-32 20 -170 -11 -170 -12 0 -14 12 -12 56 2 45 -1 59 -15 68 -23 14 -35 -3
-43 -66 -10 -72 -22 -57 -17 20 6 85 8 91 35 102 34 13 43 12 63 -10z m1212
-3 c51 -42 129 -85 216 -119 l87 -33 32 -80 c17 -44 42 -97 55 -117 13 -21 23
-40 23 -43 0 -3 12 -23 26 -45 15 -22 25 -43 22 -45 -3 -3 -52 6 -109 19 -155
36 -189 41 -189 23 0 -8 11 -26 24 -40 32 -35 76 -92 76 -100 0 -3 -27 -9 -60
-13 -55 -6 -61 -9 -66 -33 -9 -45 -35 -111 -43 -111 -5 0 -48 44 -97 97 -49
54 -128 138 -176 186 -79 80 -88 93 -88 127 0 81 8 95 58 109 26 7 60 17 75
22 23 7 35 3 69 -21 57 -41 67 -39 61 13 -7 61 -30 189 -38 210 -10 24 8 21
42 -6z m-1046 -17 c15 -9 19 -22 19 -64 0 -61 -17 -119 -34 -113 -6 2 -11 26
-11 54 -1 76 -39 111 -63 58 -7 -14 -12 -41 -12 -60 0 -25 -4 -35 -16 -35 -12
0 -14 7 -10 28 2 15 8 49 11 75 5 37 12 50 28 57 30 12 65 12 88 0z m-969 -37
c10 -11 18 -47 22 -93 6 -75 3 -75 -24 -2 -17 44 -49 61 -67 36 -18 -25 -16
-51 8 -90 16 -27 18 -34 6 -34 -16 0 -40 53 -51 113 -6 31 -3 41 18 62 29 29
66 32 88 8z m-1953 -23 c57 -27 62 -32 50 -48 -7 -9 -14 -18 -15 -20 -1 -2
-21 6 -44 18 -49 25 -90 20 -90 -10 0 -21 33 -56 62 -66 19 -6 25 -34 8 -34
-16 0 -70 29 -107 57 -36 26 -43 61 -21 108 16 36 74 34 157 -5z m3099 -12 c3
-24 -30 -120 -49 -141 -4 -5 -5 20 -2 56 4 40 2 67 -5 71 -12 7 -62 -71 -62
-97 0 -10 -5 -17 -11 -17 -8 0 -9 11 -5 31 3 17 6 40 6 49 0 10 12 33 26 50
22 26 33 31 63 28 31 -3 36 -7 39 -30z m1930 12 c32 -30 28 -72 -9 -115 -40
-45 -87 -71 -102 -56 -7 7 1 23 27 51 60 66 34 104 -38 55 -21 -14 -41 -24
-43 -21 -9 9 39 67 71 87 40 24 67 24 94 -1z m-3232 -22 c17 -33 54 -135 54
-150 0 -4 -7 -8 -15 -8 -8 0 -19 16 -25 40 -13 48 -52 79 -75 60 -21 -17 -19
-59 4 -94 19 -29 19 -46 1 -46 -11 0 -50 81 -50 102 0 8 -5 19 -11 25 -20 20
8 71 42 78 16 4 31 11 34 16 11 17 24 9 41 -23z m1995 -30 c22 -17 36 -35 31
-40 -5 -5 -40 -16 -78 -26 l-69 -17 -2 -59 c-2 -32 -5 -61 -7 -63 -3 -3 -20 7
-39 21 l-35 27 5 72 c3 40 7 74 10 77 4 4 110 34 136 39 5 0 26 -13 48 -31z
m-571 2 c11 -11 20 -33 20 -50 0 -32 -34 -110 -49 -110 -17 0 -19 13 -5 45 10
24 11 41 4 59 -13 35 -35 24 -57 -30 -19 -46 -30 -54 -39 -30 -5 14 28 98 48
124 16 18 55 15 78 -8z m-2680 -35 c110 -9 150 -16 144 -26 -16 -27 -258 -172
-268 -161 -8 7 -7 151 0 179 5 17 12 22 28 18 11 -2 55 -7 96 -10z m1102 -7
c8 -13 22 -43 30 -68 9 -25 19 -53 23 -62 15 -36 -15 -17 -35 22 -27 52 -66
73 -86 45 -19 -25 -19 -25 16 -76 25 -38 27 -45 13 -48 -32 -6 -83 85 -83 147
0 26 47 61 81 62 17 0 32 -8 41 -22z m955 -8 c26 -5 93 -14 148 -20 55 -7 132
-20 170 -31 124 -33 201 -56 221 -67 10 -5 60 -29 109 -53 173 -82 448 -308
562 -463 54 -73 224 -411 254 -504 11 -37 25 -76 30 -87 18 -42 59 -202 64
-250 3 -27 10 -90 15 -140 14 -135 11 -208 -15 -340 -21 -104 -71 -284 -103
-365 -5 -14 -15 -43 -22 -65 -12 -40 -25 -72 -63 -155 -11 -25 -41 -70 -65
-100 -25 -30 -52 -73 -62 -95 -17 -40 -176 -201 -256 -261 -22 -15 -64 -49
-94 -74 -61 -52 -107 -84 -225 -157 -122 -77 -172 -99 -270 -121 -50 -11 -124
-29 -165 -40 -41 -11 -124 -27 -185 -37 -167 -26 -416 -10 -684 45 -94 20
-187 60 -286 124 -27 18 -81 50 -120 71 -38 21 -104 64 -145 94 -94 71 -335
307 -352 346 -8 17 -40 71 -72 120 -176 269 -259 576 -257 956 0 199 29 342
120 602 39 112 224 411 310 501 125 131 329 285 507 383 77 42 363 139 452
154 36 5 69 12 74 16 29 17 334 27 405 13z m1833 -11 c41 -7 77 -17 80 -21 6
-8 -28 -259 -36 -268 -13 -13 -114 145 -147 229 -32 86 -32 84 -1 79 16 -3 63
-12 104 -19z m-1039 -10 c29 -15 28 -46 -7 -116 -36 -75 -37 -75 -38 12 -1 55
-3 60 -24 63 -30 4 -49 -12 -57 -49 -7 -29 -19 -37 -30 -20 -9 16 42 119 62
124 21 6 71 -2 94 -14z m-2669 -144 c-3 -112 -1 -145 8 -145 7 0 35 21 63 46
51 49 69 48 59 -3 -6 -30 10 -43 53 -43 40 0 105 -19 105 -30 0 -5 -7 -15 -15
-24 -8 -8 -15 -18 -15 -23 0 -4 -30 -42 -66 -83 -61 -71 -139 -180 -176 -248
-15 -29 -19 -30 -88 -34 -40 -1 -77 0 -83 4 -13 8 -47 114 -47 148 0 14 9 40
21 59 22 36 13 65 -13 43 -21 -17 -176 -62 -214 -62 -8 0 9 54 35 110 14 30
33 95 41 144 15 88 16 89 53 109 21 11 91 55 155 98 64 43 119 78 122 79 3 0
4 -65 2 -145z m-816 96 c49 -22 51 -26 28 -52 -15 -17 -18 -16 -61 7 -55 29
-64 29 -94 5 -23 -19 -23 -20 -5 -40 10 -11 38 -28 62 -37 49 -19 48 -17 32
-43 -11 -18 -14 -18 -52 -4 -23 8 -56 31 -75 50 -29 31 -33 40 -28 75 8 62 22
71 90 64 32 -3 79 -15 103 -25z m5221 21 c17 -11 34 -62 28 -83 -8 -24 -130
-93 -151 -85 -12 5 -6 15 29 49 25 23 49 52 52 64 6 21 4 22 -27 17 -18 -3
-50 -13 -71 -21 -20 -9 -40 -13 -44 -10 -3 4 -4 8 -2 10 78 59 150 82 186 59z
m-1584 -74 c21 -33 -33 -158 -69 -158 -13 0 -13 3 0 23 19 30 28 79 17 95 -14
23 -45 9 -64 -30 -12 -24 -23 -35 -32 -31 -12 4 -12 10 1 36 39 81 49 97 64
100 21 5 71 -16 83 -35z m-2070 20 c38 -20 90 -98 78 -117 -7 -11 -15 -5 -32
22 -29 43 -65 63 -85 46 -20 -17 -17 -40 11 -81 27 -40 30 -48 16 -48 -16 0
-81 105 -81 132 0 16 9 33 22 42 27 19 42 20 71 4z m3464 -41 c67 -106 153
-270 153 -291 0 -8 14 -41 30 -74 17 -34 30 -65 30 -71 0 -5 16 -45 35 -88 20
-42 40 -93 45 -113 18 -71 28 -105 35 -122 8 -20 7 -20 -52 -9 -53 10 -97 -7
-118 -49 -9 -18 -19 -29 -23 -26 -8 9 -51 157 -52 179 0 23 -53 77 -75 77 -22
0 -130 54 -173 87 -31 23 -33 28 -26 67 6 41 55 148 80 176 11 13 6 26 -32 84
-24 38 -44 72 -44 75 0 3 21 13 47 21 52 17 93 64 93 107 0 31 14 22 47 -30z
m-3967 -12 c0 -40 8 -65 22 -65 5 0 34 -7 63 -15 51 -15 52 -17 41 -40 -13
-29 -33 -30 -141 -12 l-70 12 -3 42 c-3 36 2 47 34 82 41 46 54 45 54 -4z
m364 -20 c21 -14 86 -104 86 -119 0 -4 -17 11 -38 34 -22 22 -44 40 -50 40
-21 0 -13 -48 14 -80 45 -52 15 -48 -31 5 -28 32 -44 60 -45 77 0 58 20 72 64
43z m3884 -21 c48 -33 12 -110 -74 -158 -44 -24 -64 -26 -64 -6 0 5 20 23 44
40 46 31 65 65 48 82 -13 13 -46 2 -82 -29 -32 -27 -60 -25 -60 4 0 21 101 80
140 82 14 0 36 -6 48 -15z m-1551 -19 c29 -20 23 -42 -27 -110 -43 -58 -74
-68 -40 -12 24 39 25 60 4 78 -14 11 -19 10 -39 -13 -13 -15 -25 -33 -28 -40
-3 -9 -8 -10 -16 -3 -8 8 -1 25 24 63 31 45 40 52 68 52 18 0 42 -7 54 -15z
m-3302 -87 c-6 -69 -12 -85 -92 -255 -12 -26 -41 -51 -48 -41 -9 14 -85 258
-85 273 0 17 14 24 83 43 45 13 96 29 112 37 17 7 32 14 34 14 2 1 0 -32 -4
-71z m-554 37 c25 -14 28 -18 18 -36 -7 -14 -16 -18 -27 -14 -66 28 -68 28
-95 10 -42 -27 -35 -52 20 -68 52 -15 59 -24 40 -51 -13 -17 -15 -17 -62 5
-83 40 -114 112 -65 151 28 23 128 25 171 3z m1467 -40 c48 -49 51 -77 3 -31
-33 32 -65 31 -69 -1 -2 -15 7 -32 29 -51 19 -17 29 -34 25 -41 -5 -7 -22 5
-51 36 -50 54 -59 74 -51 109 5 19 13 24 38 24 23 0 42 -11 76 -45z m2496 -11
c26 -25 19 -53 -28 -102 -48 -51 -75 -52 -32 -2 29 36 32 52 12 69 -18 15 -46
2 -75 -35 -12 -15 -21 -21 -21 -14 0 7 16 33 36 56 39 48 78 58 108 28z m1534
-57 c18 -37 3 -73 -45 -110 -39 -29 -109 -55 -120 -43 -4 3 17 29 46 57 29 27
51 55 48 62 -6 20 -46 19 -81 -2 -40 -25 -46 -26 -46 -6 0 8 24 28 53 45 69
40 125 39 145 -3z m-698 9 c36 -8 91 -17 123 -21 31 -4 57 -10 57 -14 0 -4
-13 -35 -30 -69 -16 -34 -30 -70 -30 -80 0 -9 -4 -23 -9 -31 -10 -15 -24 -8
-71 31 -27 22 -119 138 -135 169 -15 28 -15 29 7 29 13 0 52 -7 88 -14z
m-3461 -12 c26 -15 77 -94 61 -94 -5 0 -12 5 -16 11 -13 22 -65 46 -89 41 -35
-6 -32 -35 10 -81 51 -56 26 -59 -35 -4 -49 44 -51 48 -45 82 4 20 11 42 17
49 14 17 65 15 97 -4z m3384 -68 c19 -29 67 -82 106 -117 70 -62 71 -64 71
-114 0 -75 20 -220 41 -304 10 -41 17 -77 14 -79 -3 -3 -31 15 -62 40 -67 51
-126 88 -141 88 -6 0 -16 -9 -21 -19 -8 -15 -4 -35 21 -90 17 -39 28 -74 25
-77 -3 -3 -31 3 -62 15 -31 12 -62 21 -69 21 -7 0 -34 -18 -59 -40 -26 -23
-48 -36 -52 -30 -3 5 -24 61 -46 123 -22 61 -65 162 -96 224 l-56 111 26 64
c27 69 17 64 127 60 48 -2 50 -3 85 -57 54 -85 55 -83 81 100 15 111 20 135
28 135 2 0 19 -24 39 -54z m-645 26 c7 -5 15 -24 18 -44 7 -38 -13 -64 -76
-102 -36 -21 -39 -8 -7 31 31 37 38 58 24 72 -18 18 -34 13 -71 -19 -22 -20
-37 -27 -41 -20 -7 11 14 41 50 72 21 18 81 24 103 10z m-4203 -31 c36 -13 50
-23 50 -37 0 -12 -6 -18 -15 -15 -8 2 -32 9 -52 14 -46 13 -88 -3 -88 -33 0
-22 24 -35 83 -45 41 -7 43 -11 22 -40 -14 -17 -19 -18 -63 -7 -96 25 -137
118 -69 161 38 25 66 25 132 2z m4570 1 c18 -13 65 -73 65 -84 0 -6 -24 -8
-67 -4 l-68 7 -24 -58 c-32 -78 -35 -79 -61 -43 -22 31 -22 32 -5 70 9 21 20
53 24 71 5 24 14 35 31 40 34 10 93 10 105 1z m-3199 -80 c24 -20 44 -42 44
-49 0 -20 -12 -16 -53 18 -42 34 -70 35 -75 1 -3 -17 7 -28 42 -49 25 -16 46
-34 46 -40 0 -7 -2 -13 -5 -13 -11 0 -111 63 -122 78 -19 24 -16 59 8 83 27
27 58 19 115 -29z m-1234 -24 c22 -23 35 -28 77 -28 28 0 51 -3 51 -6 0 -3
-11 -24 -25 -48 -40 -68 -56 -123 -41 -135 7 -6 21 -37 30 -69 10 -31 21 -67
26 -78 5 -12 11 -42 15 -66 l7 -45 -84 -71 c-45 -40 -91 -72 -100 -72 -16 0
-25 -29 -53 -177 -7 -35 -22 -43 -31 -18 -10 26 -71 36 -118 20 -56 -20 -56
-20 -56 24 0 135 139 612 233 796 18 37 21 38 31 20 6 -10 23 -32 38 -47z
m5561 0 c10 -21 16 -46 13 -56 -9 -26 -83 -77 -131 -91 -34 -9 -42 -9 -52 6
-21 28 -15 41 25 54 47 15 62 27 62 50 0 24 -36 25 -85 2 -31 -15 -37 -15 -45
-3 -15 24 -13 27 43 48 109 43 145 41 170 -10z m-1405 -4 c15 -11 22 -25 22
-50 0 -28 -5 -37 -27 -46 -16 -7 -40 -23 -54 -36 -20 -17 -29 -20 -34 -11 -5
7 6 24 30 43 66 56 27 103 -42 50 -28 -21 -37 -24 -44 -13 -5 9 6 23 38 46 52
37 78 41 111 17z m-3009 -95 c47 -30 60 -47 45 -61 -3 -4 -22 5 -41 18 -31 20
-93 34 -93 19 0 -20 28 -54 56 -70 19 -10 34 -24 34 -32 0 -13 -33 2 -117 54
-26 15 -32 70 -11 91 21 21 75 13 127 -19z m-1369 3 c75 -24 76 -48 2 -44 -64
4 -105 -17 -100 -51 3 -19 12 -23 61 -31 57 -8 58 -9 52 -35 -4 -14 -8 -27
-10 -29 -2 -2 -29 2 -61 8 -40 8 -67 21 -86 41 -26 25 -29 35 -26 81 3 44 7
54 28 65 33 17 74 15 140 -5z m615 -1 c5 -10 -10 -41 -61 -123 -38 -61 -156
-218 -165 -218 -4 0 -13 24 -20 53 -6 28 -22 82 -35 119 l-23 67 32 20 c18 10
61 27 97 37 36 10 83 25 105 35 47 20 62 23 70 10z m318 -96 c7 -19 15 -37 18
-39 2 -2 36 -1 74 4 39 4 71 6 73 5 2 -2 -3 -18 -11 -37 -14 -33 -18 -35 -77
-41 -110 -12 -113 -11 -143 35 -15 23 -27 48 -27 55 0 7 12 38 26 70 l25 58
15 -37 c8 -21 20 -54 27 -73z m4244 73 c35 -26 122 -71 170 -88 l32 -12 -48
-96 c-27 -54 -61 -125 -77 -159 -16 -34 -33 -61 -38 -60 -38 11 -115 437 -78
437 4 0 22 -10 39 -22z m-694 -15 c27 -25 21 -58 -20 -93 -38 -34 -101 -65
-111 -56 -3 4 16 26 41 51 26 25 47 52 47 60 0 31 -30 27 -71 -9 -63 -54 -71
-30 -8 26 57 51 83 56 122 21z m1352 -30 c15 -19 19 -61 9 -88 -7 -17 -62 -48
-125 -71 -36 -12 -40 -11 -49 6 -14 26 -13 27 18 35 26 6 82 51 82 66 0 16
-32 17 -77 4 -53 -16 -50 -16 -55 8 -2 14 11 24 52 42 64 28 124 27 145 -2z
m-5165 -118 c19 -69 40 -125 46 -125 18 0 40 31 70 98 16 34 32 61 35 60 4 -2
22 -23 40 -47 l34 -44 73 2 c67 2 72 1 72 -18 0 -11 -6 -35 -14 -53 -8 -18
-21 -49 -29 -68 -16 -36 -37 -93 -61 -165 -8 -22 -19 -75 -26 -118 l-13 -79
-74 -36 -74 -36 -50 50 -49 49 6 57 c4 32 3 58 0 58 -11 0 -74 -48 -140 -107
-33 -29 -63 -53 -68 -53 -4 0 -8 17 -8 38 0 38 -34 272 -45 307 -6 19 26 71
95 155 11 14 46 64 77 113 31 48 60 87 63 87 3 0 21 -56 40 -125z m618 55 c35
-21 52 -37 52 -50 0 -25 -4 -25 -38 -1 -15 11 -43 23 -64 26 -31 6 -37 4 -43
-15 -9 -29 15 -54 65 -69 43 -13 48 -22 26 -40 -20 -17 -103 26 -134 69 -22
29 -23 35 -11 63 7 18 18 35 23 39 23 16 73 7 124 -22z m3274 -37 c20 -18 23
-45 8 -72 -14 -27 -153 -80 -164 -62 -3 5 5 12 18 15 31 8 86 54 86 72 0 19
-20 18 -75 -6 -54 -23 -55 -23 -55 -10 0 6 5 10 11 10 5 0 27 13 47 29 32 26
50 33 96 40 5 0 18 -6 28 -16z m-4609 -49 c59 -10 48 -33 -17 -33 -60 1 -96
-13 -96 -38 0 -24 30 -53 56 -53 35 0 54 -10 54 -29 0 -28 -7 -29 -73 -14 -77
18 -107 44 -107 92 0 20 4 41 8 47 21 31 88 42 175 28z m5933 -44 c28 -61 27
-64 -28 -92 -29 -14 -72 -29 -95 -33 -38 -6 -43 -4 -43 12 0 14 9 18 36 20 41
2 74 27 74 55 0 28 -28 33 -78 15 -46 -17 -62 -15 -62 8 0 20 78 44 135 42 42
-2 52 -6 61 -27z m-4663 -40 c20 -12 37 -26 37 -31 0 -13 -7 -11 -34 6 -12 8
-40 16 -62 18 -30 1 -39 -2 -42 -16 -6 -28 16 -45 64 -53 64 -9 56 -28 -8 -20
-71 10 -112 34 -116 70 -2 15 2 34 9 43 18 21 103 12 152 -17z m3406 -16 c44
-56 12 -113 -79 -144 -51 -18 -56 -18 -67 -3 -19 25 -17 29 26 41 46 14 64 33
59 64 -4 31 -31 34 -80 8 -33 -17 -43 -19 -49 -8 -14 21 -12 22 54 44 86 30
111 30 136 -2z m1293 -95 c23 -17 29 -27 26 -53 -2 -26 -11 -35 -53 -58 -27
-14 -71 -29 -97 -33 -43 -7 -48 -5 -48 12 0 15 13 24 55 37 95 30 102 93 7 67
-64 -18 -77 -18 -77 -2 0 16 85 49 128 50 16 1 42 -8 59 -20z m-6017 -11 c32
-15 35 -44 3 -33 -54 18 -108 6 -108 -23 0 -22 38 -42 81 -42 24 0 30 -4 27
-17 -3 -15 -14 -18 -78 -16 -63 1 -77 4 -92 23 -23 29 -24 89 0 106 21 17 132
18 167 2z m1230 1 c77 -16 77 -16 66 -38 -10 -17 -13 -18 -56 -3 -42 13 -48
13 -62 0 -24 -25 -1 -57 48 -64 30 -5 39 -11 37 -23 -4 -17 -16 -17 -81 0 -51
13 -77 41 -77 82 0 51 36 64 125 46z m-761 -16 c12 -38 36 -240 36 -300 0 -59
-1 -63 -24 -63 -18 0 -39 23 -100 109 -42 60 -78 116 -82 124 -3 9 22 37 73
80 43 36 81 66 85 67 4 0 9 -8 12 -17z m5345 -20 c14 -35 33 -168 35 -253 2
-36 8 -76 15 -88 7 -13 10 -34 7 -47 -3 -13 -2 -25 3 -27 20 -7 30 -423 10
-442 -5 -6 -18 -1 -32 12 -12 12 -37 27 -55 33 -27 9 -39 8 -77 -11 -26 -12
-48 -21 -50 -19 -2 2 1 43 7 91 6 49 8 95 4 103 -3 8 -18 18 -33 21 -43 11
-129 93 -154 146 -20 42 -21 50 -8 80 7 18 46 72 86 120 81 97 77 76 44 203
-16 60 -15 61 42 62 35 1 66 9 88 22 45 27 54 26 68 -6z m-787 -21 c32 -10 61
-21 65 -26 11 -10 32 -84 26 -90 -6 -6 -68 22 -105 46 -40 27 -55 22 -95 -33
l-36 -51 -14 27 c-12 22 -12 32 -2 57 11 26 80 88 98 88 3 0 32 -8 63 -18z
m-249 -1 c31 -12 38 -39 21 -79 -11 -27 -23 -34 -83 -52 -66 -20 -91 -20 -91
0 0 5 10 11 23 15 48 13 97 39 97 50 0 28 -29 39 -73 26 -23 -7 -50 -15 -59
-17 -13 -4 -18 0 -18 14 0 14 13 22 63 34 77 19 89 20 120 9z m701 -114 l123
-64 -44 -54 c-44 -56 -61 -80 -89 -126 l-17 -27 -27 55 c-24 46 -90 246 -90
271 0 16 22 7 144 -55z m-154 5 c0 -23 57 -176 89 -240 l31 -61 -35 -106 c-19
-58 -38 -137 -41 -176 -4 -38 -10 -69 -14 -69 -4 0 -34 33 -66 73 -33 39 -64
78 -71 84 -6 7 -13 18 -16 25 -11 32 -28 -14 -33 -93 -4 -46 -8 -86 -10 -88
-3 -3 -28 18 -57 47 l-52 51 -25 -19 c-44 -35 -81 -51 -85 -37 -9 28 -18 122
-16 162 1 27 -16 238 -25 303 -6 46 -4 59 17 95 12 23 31 51 41 62 19 20 19
19 66 -7 26 -14 62 -29 80 -33 25 -5 32 -12 32 -31 0 -45 24 -115 38 -112 8 2
39 52 70 111 50 95 58 106 69 91 7 -10 13 -24 13 -32z m-4125 1 c57 -18 60
-20 47 -40 -6 -10 -20 -10 -66 -1 -48 11 -59 10 -66 -2 -6 -8 -10 -20 -10 -27
0 -14 53 -33 92 -33 19 0 28 -4 26 -12 -3 -7 -12 -13 -21 -12 -9 0 -37 1 -62
2 -53 2 -85 28 -85 70 0 38 27 62 82 71 4 0 32 -7 63 -16z m4850 -3 c41 -34
-2 -105 -77 -128 -79 -24 -88 -24 -88 0 1 17 12 28 43 43 29 14 42 26 42 40 0
16 -6 20 -35 19 -19 0 -43 -4 -52 -8 -14 -6 -18 -4 -18 12 0 15 10 23 38 30
46 14 126 9 147 -8z m-6057 -34 c3 -16 -1 -17 -36 -11 -33 5 -44 2 -68 -18
-24 -21 -27 -27 -15 -41 9 -10 29 -16 56 -16 38 0 43 -3 47 -25 5 -22 2 -25
-22 -25 -48 0 -134 20 -149 34 -31 31 -7 96 44 117 11 4 47 7 80 6 49 -2 60
-5 63 -21z m4839 -24 c16 -21 17 -88 2 -98 -22 -13 -144 -32 -153 -24 -14 14
2 27 46 39 56 14 72 25 65 45 -7 19 -70 22 -113 6 -21 -8 -29 -8 -35 2 -9 14
-5 16 76 41 56 17 93 14 112 -11z m-3648 -103 c28 -10 39 -27 25 -41 -3 -3
-20 -1 -38 4 -44 14 -86 3 -86 -21 0 -23 19 -31 76 -31 33 0 44 -4 44 -16 0
-13 -10 -15 -67 -9 -74 8 -98 22 -108 63 -13 53 70 80 154 51z m4866 1 c3 -5
15 -10 25 -10 21 0 34 -32 28 -71 -7 -53 -158 -103 -195 -66 -15 14 -13 16 13
22 89 20 128 45 107 66 -13 13 -78 17 -115 6 -24 -6 -28 -4 -28 13 0 11 6 22
13 24 91 26 143 31 152 16z m-5255 -55 l46 -46 59 36 c32 19 62 35 67 35 4 0
8 -20 8 -45 0 -44 -1 -45 -69 -91 l-70 -46 -43 30 c-67 46 -71 53 -63 116 4
31 10 56 13 56 4 0 27 -20 52 -45z m-835 6 c14 -6 5 -9 -34 -14 -61 -7 -83
-22 -79 -51 3 -18 11 -21 61 -24 52 -3 57 -5 57 -26 0 -23 -2 -23 -72 -19 -62
4 -77 9 -95 29 -39 42 -23 93 32 107 31 7 108 6 130 -2z m4903 -7 c33 -23 30
-75 -6 -96 -37 -22 -156 -35 -167 -19 -10 18 -4 21 53 28 53 6 90 32 77 54 -5
8 -28 10 -71 6 -59 -4 -86 4 -70 21 7 7 81 18 131 21 17 0 41 -6 53 -15z
m-4759 -104 c23 0 48 8 64 20 14 11 27 20 30 20 3 0 3 -36 0 -80 -5 -72 -4
-83 15 -103 11 -12 41 -58 67 -101 26 -44 58 -95 72 -113 l25 -33 -33 -57
c-19 -32 -55 -79 -81 -105 -42 -42 -46 -50 -38 -75 5 -15 15 -56 23 -91 l14
-62 -47 6 c-55 7 -94 -9 -134 -57 -15 -17 -29 -29 -33 -26 -21 22 -60 229 -82
432 -9 90 -5 247 8 288 5 18 13 69 16 115 l7 82 34 -30 c26 -22 45 -30 73 -30z
m378 -20 c-12 -109 -82 -333 -102 -327 -13 4 -134 198 -135 214 0 7 30 30 68
52 37 22 87 59 112 80 25 22 49 41 54 41 5 0 6 -27 3 -60z m713 10 c0 -17 -7
-20 -53 -20 -60 0 -81 -13 -66 -42 7 -14 21 -18 59 -18 38 0 50 -4 50 -15 0
-12 -14 -15 -67 -15 -79 0 -113 22 -113 75 0 42 25 53 118 54 66 1 72 -1 72
-19z m-583 -107 c32 -39 63 -74 70 -77 17 -7 33 55 33 127 0 31 4 57 9 57 4 0
28 -16 52 -35 24 -19 49 -35 56 -35 7 0 38 18 70 41 l58 40 7 -103 c4 -57 5
-119 2 -138 -3 -19 2 -71 11 -115 9 -44 16 -113 16 -154 0 -74 -1 -75 -43
-118 -23 -24 -50 -45 -59 -48 -10 -3 -42 8 -71 24 l-54 31 -18 80 c-12 52 -23
80 -32 80 -14 0 -74 -75 -74 -93 0 -12 -92 -157 -100 -157 -7 1 -40 68 -40 83
0 7 -23 60 -51 118 l-51 107 35 103 c19 57 45 149 57 203 l23 99 18 -24 c10
-13 44 -56 76 -96z m4888 39 c16 -26 48 -65 73 -87 l44 -40 -47 -40 c-26 -22
-64 -55 -84 -73 -20 -18 -48 -42 -64 -53 -24 -18 -28 -19 -33 -4 -21 53 47
368 75 351 5 -3 21 -27 36 -54z m-628 26 c18 -22 25 -84 11 -95 -42 -33 -178
-38 -178 -7 0 9 11 14 30 14 41 0 100 26 100 43 0 20 -38 28 -94 21 -38 -6
-46 -4 -46 9 0 12 12 17 48 20 99 7 120 7 129 -5z m-4927 -23 c0 -11 -11 -15
-40 -15 -50 0 -90 -18 -90 -41 0 -19 19 -27 80 -31 53 -4 42 -23 -17 -26 -62
-4 -113 8 -126 29 -13 21 11 70 43 86 37 19 150 17 150 -2z m1209 -81 c47 -10
38 -31 -15 -37 -49 -5 -81 -27 -69 -47 6 -9 25 -11 66 -6 48 5 59 3 59 -9 0
-9 -9 -15 -22 -15 -13 0 -45 -3 -73 -6 -42 -5 -54 -2 -72 15 -62 59 20 126
126 105z m3663 -54 c54 0 78 -18 78 -60 0 -43 -23 -60 -84 -60 -70 0 -118 10
-113 24 2 6 19 12 37 13 70 3 101 13 98 31 -3 13 -16 18 -66 20 -44 2 -62 7
-62 17 0 17 19 25 45 20 11 -3 41 -5 67 -5z m-4898 -16 c31 -12 18 -34 -21
-34 -49 -1 -88 -29 -79 -58 6 -17 16 -22 59 -24 69 -4 62 -22 -9 -26 -70 -4
-104 15 -104 58 0 34 38 65 96 79 22 5 40 9 41 10 1 1 8 -2 17 -5z m5194 -94
c43 -41 52 -54 47 -75 -3 -14 -7 -36 -10 -50 -8 -37 -30 -30 -66 20 -18 25
-36 45 -39 45 -4 0 -33 -11 -64 -25 -42 -18 -56 -21 -56 -11 0 7 -3 27 -6 43
-5 27 -2 31 50 57 31 16 59 33 62 37 10 17 30 8 82 -41z m-3908 -5 c0 -24 -2
-25 -44 -20 -37 5 -47 3 -65 -16 -13 -14 -18 -26 -12 -32 12 -12 57 -14 92 -4
20 5 28 3 33 -10 4 -9 5 -17 4 -19 -3 -2 -119 -6 -145 -5 -21 2 -53 40 -53 64
0 38 42 55 173 66 12 1 17 -6 17 -24z m3553 -36 c89 -18 126 -65 96 -121 -10
-19 -17 -20 -85 -14 -87 8 -104 13 -104 32 0 10 15 14 60 14 45 0 62 4 66 15
10 26 -16 45 -62 45 -37 0 -44 3 -44 20 0 23 0 23 73 9z m1331 -52 c24 -19 28
-28 22 -51 -4 -16 -17 -31 -32 -36 -28 -11 -143 -13 -168 -4 -33 13 -14 24 39
24 53 0 105 15 105 31 0 17 -40 29 -94 29 -52 0 -66 7 -49 23 3 4 38 7 77 7
59 0 76 -4 100 -23z m-6154 -12 c0 -8 -7 -15 -15 -15 -8 0 -30 -8 -50 -17 -35
-17 -52 -44 -39 -64 7 -11 66 -8 96 5 22 10 38 -22 17 -34 -26 -17 -107 -22
-131 -9 -51 27 -62 73 -25 106 43 39 147 59 147 28z m5144 -29 c40 -48 42 -62
22 -121 -15 -42 -9 -59 23 -68 19 -5 114 63 189 136 l42 42 -6 -87 c-4 -52 -2
-131 6 -198 l13 -111 -36 -35 c-20 -20 -64 -94 -103 -170 -37 -74 -70 -131
-74 -127 -4 4 -17 46 -30 93 -39 147 -55 193 -65 197 -11 3 -32 -39 -68 -132
-13 -33 -27 -60 -33 -59 -5 0 -21 23 -36 50 l-27 50 -70 -10 c-39 -5 -74 -6
-78 -2 -4 4 -1 21 6 39 7 18 17 50 21 72 4 22 20 69 34 105 37 90 86 249 86
278 0 13 6 30 14 38 13 12 111 61 128 63 4 1 23 -19 42 -43z m-4588 -205 c13
-35 24 -65 24 -67 0 -2 -17 3 -38 10 -43 15 -202 114 -202 126 0 4 6 13 14 19
8 7 33 41 57 77 l42 65 39 -83 c22 -46 50 -112 64 -147z m4940 177 c15 -24 41
-61 59 -83 17 -22 43 -60 57 -85 l26 -45 -90 -68 c-50 -38 -92 -66 -94 -64 -2
2 -9 53 -15 113 -10 112 2 274 22 274 5 0 21 -19 35 -42z m-4206 28 c0 -21
-17 -36 -40 -36 -28 0 -80 -34 -80 -52 0 -7 21 -9 60 -5 74 6 83 -13 15 -31
-62 -17 -78 -15 -104 9 -17 16 -21 30 -19 57 l3 37 68 7 c38 3 71 9 75 12 6 7
22 8 22 2z m3528 -73 c41 -4 57 -11 68 -29 20 -29 10 -81 -16 -89 -22 -7 -131
10 -159 25 -25 13 -28 33 -3 26 74 -22 117 -14 110 20 -2 14 -17 22 -54 29
-35 7 -49 14 -46 23 3 9 12 11 26 7 11 -4 45 -9 74 -12z m1012 -43 c32 0 62 5
65 10 3 6 13 10 21 10 13 0 15 -11 9 -67 -3 -38 -12 -99 -20 -138 -8 -38 -19
-101 -25 -140 -6 -38 -15 -85 -20 -102 -6 -18 -15 -50 -21 -70 -6 -21 -14 -47
-18 -58 -5 -11 -16 -45 -26 -75 -10 -30 -40 -102 -68 -160 l-51 -105 -6 42
c-11 72 -82 123 -151 109 -16 -3 -29 -3 -29 -1 0 3 17 46 37 96 l37 90 -23 52
c-37 81 -60 152 -63 188 -3 30 4 38 76 96 44 35 92 67 108 70 15 3 28 9 28 13
0 17 22 176 26 188 3 9 13 3 30 -17 23 -28 31 -31 84 -31z m229 24 c14 -3 37
-14 53 -25 38 -27 39 -81 3 -105 -51 -33 -180 -30 -173 4 2 13 14 17 48 18 46
1 90 17 90 34 0 26 -81 74 -110 65 -14 -5 -20 -2 -20 9 0 16 31 16 109 0z
m-6029 -56 c0 -8 -14 -13 -36 -14 -24 0 -42 -7 -50 -19 -17 -24 -18 -65 -1
-66 28 -3 53 -1 80 6 40 11 35 -13 -8 -31 -46 -19 -104 -18 -127 3 -24 22 -23
69 2 91 41 35 140 56 140 30z m1278 -15 c2 -7 -3 -13 -11 -13 -22 0 -76 -32
-82 -50 -7 -16 20 -40 44 -40 9 0 28 7 44 14 25 14 27 13 27 -3 0 -12 -13 -22
-39 -29 -106 -32 -176 17 -123 86 31 40 130 65 140 35z m-230 -30 c6 -14 -5
-37 -43 -94 l-52 -75 -56 24 c-53 23 -56 26 -67 73 -7 28 -10 53 -7 56 4 3 27
-7 53 -22 52 -31 69 -27 120 26 32 34 40 35 52 12z m3730 -45 c42 -22 37 -94
-10 -119 -18 -10 -34 -8 -90 12 -90 31 -92 52 -3 43 56 -6 66 -4 71 10 10 25
-17 47 -65 53 -42 6 -45 10 -35 36 4 13 13 12 57 -5 29 -10 62 -24 75 -30z
m-3675 -106 c24 -48 50 -105 57 -127 7 -22 16 -44 20 -50 4 -5 11 -26 15 -45
4 -19 22 -62 40 -96 l33 -60 -23 -70 -23 -69 -73 3 c-83 2 -109 20 -109 72 0
17 -7 30 -16 34 -23 9 -27 3 -35 -52 -6 -40 -15 -90 -45 -240 -4 -21 -19 -9
-136 110 l-131 133 -2 80 c-2 78 -36 281 -55 330 -11 29 -3 31 27 10 53 -37
235 -145 245 -145 6 0 8 9 3 23 -17 57 -43 157 -40 157 2 0 27 -11 57 -25 61
-29 60 -30 110 64 16 28 30 51 32 51 3 0 24 -39 49 -88z m4957 54 c49 -22 34
-95 -27 -135 -33 -21 -42 -23 -96 -15 -62 9 -74 18 -58 43 6 10 26 14 64 12
60 -2 83 14 72 48 -7 23 -66 45 -95 36 -16 -5 -20 -2 -20 14 0 19 4 20 68 14
37 -3 78 -11 92 -17z m-4730 -31 c0 -7 -9 -16 -20 -20 -25 -8 -60 -52 -60 -76
0 -26 49 -25 83 1 30 24 37 25 37 5 0 -17 -69 -55 -100 -55 -12 0 -34 7 -50
15 -24 13 -30 22 -30 49 0 38 17 57 80 85 46 20 60 20 60 -4z m-1357 -6 c-47
-23 -57 -55 -27 -80 13 -11 23 -10 60 4 l44 16 0 -23 c0 -44 -149 -88 -179
-53 -6 8 -14 27 -17 44 -8 38 25 78 81 98 62 22 86 18 38 -6z m4707 -56 c41
-17 80 -51 80 -71 0 -8 -10 -27 -21 -44 -18 -25 -27 -29 -53 -25 -51 9 -126
47 -126 64 0 11 6 14 23 8 12 -3 44 -9 70 -12 43 -5 49 -4 45 12 -2 16 -60 54
-100 67 -6 2 -8 10 -4 16 8 13 25 10 86 -15z m-4086 -5 c37 -130 63 -387 38
-376 -39 16 -192 116 -192 125 0 6 21 56 48 110 26 55 53 113 60 131 16 37 37
42 46 10z m4890 -231 c9 -21 14 -42 11 -47 -4 -6 -48 -30 -98 -55 -51 -25
-113 -57 -139 -73 -25 -15 -49 -24 -53 -20 -4 4 5 33 20 65 82 178 151 297
177 306 8 2 23 -22 39 -67 14 -39 34 -88 43 -109z m396 165 c0 -4 27 -13 61
-19 71 -13 89 -26 89 -62 -1 -66 -75 -99 -157 -69 -49 18 -43 39 10 37 52 -3
87 8 87 26 0 19 -31 34 -72 38 -28 2 -34 7 -36 30 -2 15 1 27 7 27 6 0 11 -3
11 -8z m-4485 -12 c3 -5 -7 -16 -22 -24 -40 -20 -67 -52 -59 -71 7 -19 37 -13
78 16 33 23 38 24 38 4 0 -18 -112 -75 -145 -75 -45 0 -61 53 -26 84 29 26
104 74 118 75 6 1 14 -3 18 -9z m-1322 -14 c6 -15 -11 -36 -29 -36 -20 0 -64
-52 -64 -76 0 -21 5 -24 40 -24 22 0 49 6 60 12 15 10 22 10 31 1 22 -22 -104
-62 -154 -49 -18 4 -27 17 -37 52 -12 41 -11 47 6 64 20 20 111 69 130 69 7 1
14 -5 17 -13z m297 -141 c0 -39 27 -80 44 -66 8 7 21 5 42 -5 29 -16 184 -106
184 -108 0 -1 -7 -36 -15 -78 -16 -84 -36 -141 -54 -152 -18 -12 -13 -67 7
-72 17 -5 62 -65 62 -84 0 -5 -10 -10 -23 -10 -40 0 -95 -46 -107 -90 -6 -22
-14 -40 -18 -40 -8 0 -34 43 -65 105 -11 22 -28 51 -37 65 -10 14 -39 72 -65
130 -26 58 -69 150 -95 205 -67 140 -127 305 -112 305 4 0 21 -9 37 -20 39
-26 90 -25 145 4 l45 24 12 -42 c7 -22 13 -55 13 -71z m4195 106 c3 -5 28 -17
56 -26 62 -21 79 -52 55 -102 -22 -47 -67 -46 -130 2 -25 20 -46 40 -46 44 0
5 27 2 60 -7 44 -12 63 -13 71 -5 8 8 1 18 -27 37 -21 14 -47 26 -56 26 -10 0
-18 6 -18 13 0 24 23 36 35 18z m-3097 -100 c-25 -8 -88 -63 -88 -77 0 -21 53
-17 94 7 36 21 56 19 56 -6 0 -9 -6 -12 -15 -9 -8 3 -35 -6 -59 -20 -58 -34
-100 -34 -122 -1 -27 41 -12 69 58 108 57 32 64 33 76 19 10 -14 10 -18 0 -21z
m3484 -12 l26 -50 -19 -44 c-11 -24 -23 -47 -28 -50 -5 -2 -20 23 -34 58 l-25
62 -69 -1 -68 -1 0 31 c0 31 1 31 60 37 134 13 127 14 157 -42z m939 -16 c70
-34 89 -53 89 -87 0 -58 -16 -69 -96 -62 -101 8 -104 9 -104 28 0 16 8 18 68
16 64 -3 67 -2 70 20 4 30 -23 51 -64 52 -37 0 -43 5 -37 31 6 23 29 24 74 2z
m-5748 -22 c3 -15 -2 -21 -22 -26 -32 -8 -81 -53 -81 -75 0 -19 39 -40 75 -40
26 0 42 16 23 22 -8 3 -5 9 9 16 19 10 24 9 33 -8 9 -17 5 -22 -39 -45 -63
-32 -135 -34 -151 -6 -18 34 -12 86 13 108 20 19 113 71 128 73 4 0 9 -9 12
-19z m4406 -17 c55 -33 61 -39 61 -70 0 -28 -4 -35 -26 -40 -39 -10 -96 11
-134 51 -38 39 -28 45 30 15 41 -21 75 -26 84 -11 8 12 -13 34 -59 65 -59 39
-26 31 44 -10z m334 -57 c32 -74 33 -88 7 -112 -11 -10 -25 -36 -31 -59 -9
-35 -8 -42 8 -54 24 -18 66 -9 163 35 44 20 83 33 87 30 3 -4 -5 -32 -19 -64
-14 -32 -33 -99 -43 -149 -10 -51 -20 -96 -24 -101 -3 -5 -51 -38 -106 -75
-55 -36 -120 -84 -145 -107 l-45 -42 -7 147 c-4 88 -11 151 -18 158 -8 8 -27
-7 -75 -59 -35 -38 -66 -67 -70 -63 -4 3 -9 34 -12 67 l-6 60 -46 6 c-93 12
-111 16 -111 26 0 6 30 43 67 83 85 91 177 216 200 272 17 40 21 44 68 52 27
5 68 10 90 11 40 0 40 0 68 -62z m-3333 6 c0 -5 -16 -21 -36 -36 -24 -20 -34
-35 -32 -50 4 -30 48 -35 73 -7 19 21 55 28 55 10 0 -5 -10 -15 -22 -21 -13
-7 -38 -25 -56 -40 -41 -37 -74 -37 -102 -2 -33 42 -24 81 28 120 39 30 92 44
92 26z m2897 -50 c23 -21 46 -48 52 -60 16 -31 -2 -71 -34 -79 -31 -8 -53 2
-113 46 -36 25 -41 34 -32 46 18 20 33 17 60 -11 26 -27 80 -35 80 -11 0 19
-39 66 -55 66 -17 0 -28 17 -20 30 10 16 18 12 62 -27z m-3133 -8 c15 -23 15
-29 -11 -105 l-27 -80 -63 0 c-61 0 -63 1 -88 37 -14 21 -25 42 -25 47 0 9 74
3 117 -10 20 -5 24 1 43 65 12 39 25 71 30 71 4 0 15 -11 24 -25z m4527 -33
c89 -28 101 -45 79 -109 -19 -54 -81 -69 -177 -43 -31 9 -43 17 -41 29 3 13
17 16 77 16 58 0 76 4 84 17 16 24 -7 47 -53 54 -49 8 -62 17 -54 37 8 21 15
21 85 -1z m-5628 -22 c4 -15 -2 -24 -23 -35 -22 -11 -60 -67 -60 -88 0 -13 59
-14 89 -1 41 17 51 18 51 1 0 -18 -103 -67 -140 -67 -35 0 -70 31 -70 60 0 47
59 114 122 140 13 5 24 9 24 9 1 1 4 -8 7 -19z m505 -30 c69 -61 202 -210 202
-227 0 -8 -4 -12 -8 -9 -5 3 -58 15 -118 27 -144 29 -178 43 -171 72 4 12 14
57 24 100 9 42 19 77 21 77 2 0 24 -18 50 -40z m927 21 c3 -5 -8 -24 -25 -43
-33 -36 -35 -55 -8 -72 14 -9 25 -4 56 27 35 34 40 36 52 22 12 -14 10 -20
-16 -41 -55 -47 -74 -56 -109 -56 -57 0 -87 38 -69 87 7 16 91 84 106 85 4 0
9 -4 13 -9z m-259 -52 c13 -21 28 -38 32 -36 4 1 79 -69 166 -156 l159 -158
-5 -70 c-3 -38 -8 -72 -11 -76 -4 -3 -39 -12 -79 -18 l-73 -13 -40 35 c-22 18
-50 44 -62 56 -37 35 -45 13 -28 -83 8 -47 24 -112 34 -145 10 -33 15 -61 11
-63 -5 -2 -33 11 -63 28 -31 17 -104 51 -164 74 -59 24 -111 50 -114 57 -4 8
-26 60 -49 116 -24 56 -55 121 -71 144 -15 24 -27 45 -25 47 2 2 57 -6 121
-18 65 -11 126 -18 136 -15 31 10 22 39 -37 117 l-55 73 67 5 67 5 20 72 c10
40 23 70 28 67 6 -3 21 -23 35 -45z m2956 -3 c25 -19 48 -42 52 -51 19 -49 -7
-85 -60 -85 -29 0 -45 9 -86 48 -31 30 -48 54 -44 61 5 8 19 1 44 -24 34 -32
78 -46 95 -29 10 10 -21 62 -48 80 -14 9 -25 20 -25 25 0 18 28 8 72 -25z
m857 -25 c11 -27 21 -54 21 -60 0 -6 12 -40 26 -76 15 -36 24 -68 21 -71 -4
-4 -180 -53 -194 -54 -2 0 -3 12 -3 28 0 62 76 282 98 282 5 0 19 -22 31 -49z
m-3429 -41 c0 -5 -3 -10 -7 -10 -15 0 -55 -70 -49 -85 11 -29 45 -16 72 26 19
30 28 38 34 29 15 -24 -85 -130 -123 -130 -27 0 -49 37 -42 70 12 54 115 144
115 100z m2510 -116 c0 -27 -33 -70 -60 -77 -15 -4 -32 7 -66 43 -26 27 -53
58 -60 69 -24 33 3 35 43 2 36 -28 53 -35 81 -32 21 2 13 26 -23 65 -55 60
-29 64 31 5 32 -32 54 -62 54 -75z m1420 108 c0 -5 19 -15 42 -23 88 -29 119
-81 79 -130 -16 -20 -28 -24 -73 -24 -59 1 -114 19 -122 41 -8 20 8 25 42 13
17 -6 47 -9 69 -7 33 3 38 6 38 28 0 20 -8 26 -50 39 -62 19 -59 15 -51 46 6
23 26 36 26 17z m-266 -51 c15 -16 45 -37 67 -46 38 -17 42 -17 76 -1 19 9 38
15 40 12 6 -5 -52 -123 -72 -146 -7 -8 -25 -37 -40 -65 -29 -53 -158 -227
-211 -285 -18 -19 -43 -48 -56 -65 -12 -16 -52 -58 -88 -93 l-65 -62 -6 56
c-8 72 -34 106 -88 118 l-42 9 66 67 66 66 -16 59 c-17 67 -19 123 -6 157 7
19 24 28 73 42 34 10 76 22 92 27 16 5 41 9 56 9 24 0 31 10 68 85 23 47 46
85 50 85 5 0 21 -13 36 -29z m-5137 4 c2 -6 -13 -17 -32 -24 -44 -16 -76 -58
-54 -72 24 -15 50 -10 81 17 22 18 34 22 42 14 17 -17 -5 -42 -59 -69 -69 -33
-102 -33 -128 2 l-21 27 20 28 c11 15 42 42 69 60 47 32 75 38 82 17z m1578
-34 c3 -5 -6 -27 -20 -47 -14 -21 -23 -44 -20 -52 3 -7 5 -18 5 -24 0 -5 10
-8 22 -6 15 2 31 19 47 46 17 31 26 41 34 33 8 -8 -1 -27 -29 -68 -35 -52 -43
-58 -77 -61 -21 -2 -45 2 -54 9 -23 20 -10 82 29 134 32 44 51 54 63 36z
m2219 -45 c15 -24 41 -56 57 -70 16 -14 29 -30 29 -35 0 -4 -19 -21 -42 -36
-57 -38 -82 -28 -125 49 -52 91 -44 112 17 46 37 -40 80 -54 80 -25 0 8 -16
32 -35 54 -37 40 -44 61 -22 61 7 0 26 -20 41 -44z m355 -32 c41 -7 75 -15 76
-16 1 -2 5 -33 7 -70 6 -66 5 -67 -31 -102 -20 -20 -40 -36 -44 -36 -3 0 -7
35 -9 78 l-3 77 -55 13 c-30 7 -66 15 -79 18 l-23 5 28 29 c18 18 35 27 44 23
8 -3 48 -12 89 -19z m-2449 -24 c0 -12 -6 -31 -14 -43 -20 -32 -28 -75 -15
-82 14 -9 54 29 69 66 7 16 16 29 21 29 20 0 6 -45 -31 -101 -30 -43 -47 -59
-63 -59 -72 1 -77 89 -11 176 30 39 44 43 44 14z m1984 -48 c32 -63 33 -70 20
-100 -16 -39 -58 -59 -89 -42 -23 13 -89 140 -71 140 6 0 24 -16 39 -35 18
-23 36 -35 53 -35 36 0 39 22 9 70 -21 33 -24 44 -14 56 6 8 13 14 15 14 2 0
19 -31 38 -68z m1686 33 c27 -14 54 -34 60 -44 18 -35 12 -86 -14 -114 -20
-22 -28 -24 -58 -18 -33 8 -128 58 -128 68 0 2 5 13 11 24 10 19 10 19 39 -1
15 -11 42 -23 59 -26 26 -6 32 -3 43 22 10 21 10 28 1 31 -27 9 -93 64 -88 73
9 15 21 12 75 -15z m-5293 -1 c2 -7 -7 -14 -21 -18 -13 -3 -39 -24 -56 -46
-38 -48 -26 -59 41 -35 24 9 54 19 67 22 35 9 27 -22 -13 -47 -74 -46 -175
-34 -175 20 0 37 35 78 84 100 44 20 67 21 73 4z m623 -44 c0 -10 7 -24 17
-31 16 -14 78 -140 93 -191 10 -34 -2 -36 -76 -13 -27 8 -64 15 -82 15 -20 0
-35 6 -39 15 -3 9 9 59 26 111 17 52 31 104 31 116 0 17 2 18 15 8 8 -7 15
-20 15 -30z m3381 0 l36 -10 6 -83 6 -82 -45 -41 c-24 -22 -44 -48 -44 -59 0
-17 8 -18 156 -11 l156 7 -33 -42 c-36 -43 -167 -229 -171 -241 -2 -4 -39 -12
-83 -18 -74 -10 -227 -53 -250 -70 -5 -4 -25 -11 -42 -15 l-33 -7 13 29 c7 15
20 42 29 58 20 38 58 144 58 163 0 19 -37 9 -118 -30 -34 -17 -64 -29 -67 -27
-2 3 2 33 9 67 l13 62 -69 31 c-37 18 -68 37 -68 43 0 7 25 27 55 46 30 19 54
40 55 45 0 10 170 115 187 115 10 0 36 23 72 65 22 26 26 27 80 21 31 -4 72
-11 92 -16z m-2266 -56 c-19 -35 -22 -51 -14 -65 5 -10 12 -19 14 -19 2 0 18
21 36 48 18 26 33 49 35 51 1 1 7 0 13 -3 12 -8 -38 -98 -75 -136 -20 -20 -28
-23 -51 -14 -25 9 -28 15 -26 50 2 58 60 153 84 138 4 -2 -3 -25 -16 -50z
m1736 -44 l40 -74 -23 -18 c-31 -24 -68 -33 -87 -21 -9 6 -26 39 -38 74 -24
66 -26 103 -3 59 17 -34 61 -80 76 -80 6 0 14 6 17 13 6 16 -25 91 -42 101
-13 9 -4 29 11 24 6 -2 28 -37 49 -78z m1192 -107 c7 -11 -29 -17 -195 -29
-57 -4 -88 -2 -88 4 0 18 122 118 195 161 l70 40 6 -83 c3 -45 9 -87 12 -93z
m-3203 57 c0 -25 -3 -62 -6 -82 -6 -35 -9 -37 -53 -44 -25 -4 -57 -11 -70 -16
-19 -7 -30 -2 -62 27 -22 19 -38 35 -37 36 2 0 37 6 78 12 l75 12 3 78 3 77
34 -27 c31 -25 35 -34 35 -73z m413 68 c2 -7 -2 -28 -9 -47 -17 -41 -18 -87
-3 -97 16 -9 47 33 55 74 3 18 10 34 14 37 19 12 20 -18 4 -72 -26 -85 -70
-113 -122 -77 -29 20 -31 83 -2 109 10 9 24 33 30 51 12 35 25 44 33 22z
m-1782 -24 c14 -17 11 -20 -43 -49 -27 -15 -44 -47 -33 -65 11 -18 30 -11 65
25 38 39 45 42 54 19 8 -20 -13 -45 -68 -85 -51 -38 -98 -39 -114 -4 -7 14
-12 32 -12 39 0 29 103 136 131 136 4 0 12 -7 20 -16z m3238 -39 c10 -28 21
-58 25 -67 6 -13 -1 -26 -22 -48 -49 -49 -87 -36 -122 41 -22 50 -26 89 -7 89
6 0 20 -18 30 -40 33 -72 89 -61 60 12 -15 39 -12 73 8 66 6 -2 19 -26 28 -53z
m1844 29 c47 -24 75 -53 87 -90 10 -29 9 -38 -10 -63 -30 -43 -53 -47 -113
-17 -78 39 -105 62 -90 77 11 11 25 9 74 -9 48 -17 65 -20 76 -10 25 20 10 50
-36 75 -54 28 -55 29 -46 42 9 15 21 14 58 -5z m-4744 -69 c23 -30 49 -55 59
-56 147 -7 251 -31 253 -58 4 -76 2 -181 -4 -201 -6 -22 0 -30 55 -68 35 -24
81 -58 102 -76 l39 -34 -36 -17 c-19 -9 -43 -25 -53 -36 -19 -21 -24 -75 -11
-121 13 -48 -5 -39 -126 62 -23 20 -54 43 -68 52 -40 26 -297 306 -367 401
-81 111 -83 117 -40 111 26 -4 43 1 80 26 26 17 50 40 53 51 10 29 19 24 64
-36z m1252 -46 c76 -44 141 -84 144 -90 4 -5 19 -9 35 -9 61 0 75 -13 93 -89
10 -38 19 -76 22 -83 3 -8 -19 -29 -51 -52 -56 -38 -57 -39 -106 -27 -123 28
-136 6 -57 -99 38 -51 82 -130 72 -130 -4 0 -42 7 -83 16 -41 9 -112 16 -156
16 l-82 0 -31 47 c-47 70 -154 174 -233 225 -16 10 -28 22 -28 27 0 5 39 9 88
9 116 0 192 10 192 25 0 6 -36 35 -80 64 -44 28 -80 56 -80 61 0 8 30 14 110
22 24 3 26 8 34 85 11 98 -5 99 197 -18z m1482 64 c3 -16 11 -47 19 -71 11
-37 10 -47 -3 -70 -8 -15 -27 -31 -43 -37 -24 -8 -31 -6 -51 16 -21 25 -61
156 -51 166 13 14 36 -10 42 -44 3 -21 13 -49 21 -62 14 -21 16 -22 31 -8 17
18 21 66 8 110 -6 21 -5 27 7 27 8 0 17 -12 20 -27z m-1147 -5 c-15 -54 -18
-96 -7 -102 22 -14 49 14 61 65 9 35 16 47 23 40 7 -7 6 -31 -4 -78 -11 -54
-19 -70 -38 -79 -30 -15 -59 -5 -84 28 -19 25 -19 28 -2 79 22 68 23 69 42 69
11 0 14 -6 9 -22z m990 -48 c4 -28 11 -53 15 -56 13 -8 11 -68 -3 -87 -7 -9
-24 -19 -38 -22 -38 -9 -58 20 -70 101 -13 91 -13 94 5 94 10 0 15 -10 15 -32
0 -41 20 -82 42 -86 23 -4 31 30 19 75 -13 47 -14 63 -1 63 5 0 12 -23 16 -50z
m-854 -11 c-3 -37 -1 -54 9 -60 28 -17 38 -8 50 46 13 58 39 77 39 29 0 -37
-21 -106 -38 -126 -21 -25 -74 -23 -90 3 -11 17 -11 33 0 90 15 82 38 95 30
18z m160 -28 c-4 -55 8 -81 38 -81 23 0 44 52 36 90 -4 24 -2 30 12 30 15 0
17 -10 16 -70 -2 -92 0 -86 -33 -100 -46 -19 -93 -9 -110 22 -13 23 -13 35 -2
90 15 72 19 81 34 75 8 -3 11 -23 9 -56z m558 18 c0 -16 5 -50 11 -75 10 -37
9 -48 -5 -69 -9 -14 -23 -25 -32 -25 -29 0 -62 49 -69 103 -3 29 -9 60 -11 70
-3 10 0 17 9 17 10 0 17 -16 22 -46 9 -61 14 -74 31 -74 23 0 36 38 28 85 -4
30 -3 45 5 45 6 0 11 -14 11 -31z m-2690 1 c9 -17 7 -22 -15 -32 -27 -12 -55
-54 -55 -83 0 -25 54 -18 90 11 30 26 31 26 45 8 21 -27 20 -30 -31 -65 -41
-28 -52 -31 -92 -25 -71 10 -105 49 -78 91 18 27 108 114 118 115 4 0 12 -9
18 -20z m2301 13 c0 -5 1 -29 2 -54 3 -45 19 -79 39 -79 14 0 38 65 38 105 0
19 5 35 10 35 17 0 12 -128 -6 -166 -14 -28 -22 -34 -49 -34 -55 0 -68 25 -59
119 3 45 11 81 15 81 5 0 9 -3 10 -7z m169 -47 c0 -56 8 -76 30 -76 21 0 33
45 24 90 -4 19 -2 30 5 30 6 0 11 -11 11 -24 0 -13 7 -43 15 -66 20 -55 19
-66 -5 -90 -23 -23 -82 -27 -99 -6 -14 16 -22 103 -14 151 8 52 33 46 33 -9z
m2498 -81 c12 -30 12 -40 2 -60 -19 -35 -43 -39 -97 -15 -46 20 -113 75 -113
92 0 15 22 8 52 -17 16 -14 38 -25 48 -25 28 0 50 11 50 25 0 14 -59 70 -81
77 -7 2 -9 10 -5 16 5 9 24 3 69 -22 46 -26 64 -43 75 -71z m-1728 65 c0 -5
33 -25 74 -44 l74 -35 -15 -63 c-8 -35 -17 -66 -21 -69 -13 -11 -94 -40 -99
-35 -4 4 13 66 34 123 3 6 -25 29 -61 49 -36 21 -66 42 -66 46 0 9 50 37 68
38 6 0 12 -4 12 -10z m902 -154 l3 -138 -65 6 c-36 3 -87 6 -114 6 -57 0 -57
0 11 104 52 80 143 180 154 168 4 -4 9 -69 11 -146z m-3416 106 c81 -29 194
-90 194 -104 0 -5 -10 -8 -22 -9 -52 -1 -236 -18 -265 -24 l-33 -7 0 92 c0
107 -12 102 126 52z m2455 -34 c70 -42 71 -43 66 -78 -11 -73 -33 -107 -84
-126 -58 -21 -103 -51 -103 -67 0 -12 72 -46 145 -67 43 -14 125 -48 125 -54
0 -2 -30 -18 -67 -36 -78 -38 -141 -80 -195 -128 -34 -31 -40 -33 -70 -23 -85
26 -123 31 -232 31 -64 0 -116 3 -116 6 0 3 27 34 59 68 57 59 141 161 141
170 0 6 -65 2 -137 -9 -29 -4 -53 -5 -53 -1 0 4 11 28 25 54 14 26 25 53 25
62 0 8 -19 34 -42 57 -26 27 -38 46 -33 52 6 5 35 13 65 19 30 6 73 16 95 22
22 6 74 20 115 30 41 9 100 27 130 38 30 11 59 21 63 21 4 1 39 -18 78 -41z
m-1339 2 c33 -9 39 -16 48 -53 6 -23 16 -57 21 -75 6 -18 9 -36 7 -41 -2 -5
-25 -27 -53 -50 -52 -43 -83 -50 -124 -27 -23 13 -23 13 30 51 30 21 55 40 57
41 3 2 -23 118 -33 152 -5 15 -1 15 47 2z m2950 -47 c78 -59 93 -116 42 -150
-21 -13 -31 -14 -62 -4 -54 16 -137 80 -123 94 8 8 23 1 57 -22 39 -28 49 -32
69 -23 40 18 22 46 -68 104 -12 7 9 38 26 38 5 0 32 -17 59 -37z m-4672 8 c0
-5 -20 -25 -45 -45 -49 -41 -58 -70 -22 -80 40 -11 55 -6 87 25 24 25 34 29
43 19 9 -9 1 -22 -38 -56 -48 -43 -52 -45 -105 -42 -49 3 -56 6 -68 30 -11 23
-10 32 3 58 24 46 145 122 145 91z m1925 -11 c61 -11 178 -27 260 -34 l150
-14 59 -56 59 -55 -18 -28 c-10 -15 -31 -45 -47 -65 -29 -37 -32 -38 -93 -38
-71 0 -95 -6 -95 -25 0 -13 93 -104 153 -149 46 -35 47 -46 3 -46 -73 0 -261
-51 -302 -81 -18 -14 -56 2 -148 63 -54 35 -117 67 -158 79 -37 12 -68 24 -68
27 0 4 52 34 115 67 77 40 114 65 112 75 -1 10 -33 21 -97 35 l-94 21 52 41
c28 23 57 43 64 45 9 3 6 22 -10 74 -24 77 -26 84 -14 84 4 0 57 -9 117 -20z
m579 -90 c25 -27 46 -59 46 -70 0 -24 -33 -92 -52 -107 -15 -12 -84 -24 -91
-16 -3 2 15 33 39 68 l44 63 -50 43 c-59 50 -64 69 -16 69 27 0 42 -9 80 -50z
m-1570 -17 c113 -81 236 -206 236 -240 0 -5 -39 -16 -87 -25 -49 -9 -100 -19
-114 -23 -25 -7 -26 -5 -39 57 -7 34 -23 107 -36 160 -13 53 -24 99 -24 102 0
12 14 5 64 -31z m3246 6 c0 -52 57 -109 110 -109 11 0 20 -4 20 -9 0 -14 -98
-109 -149 -143 -25 -18 -62 -48 -81 -68 -32 -32 -64 -58 -109 -85 -9 -5 -41
-29 -72 -52 -31 -24 -60 -43 -66 -43 -5 0 -18 -9 -28 -20 -10 -11 -24 -20 -32
-20 -7 0 -13 -4 -13 -9 0 -5 -10 -13 -22 -17 -13 -3 -30 -13 -39 -20 -21 -18
-140 -76 -146 -71 -2 3 4 21 13 40 25 53 7 108 -46 143 -22 15 -40 30 -40 33
0 4 45 29 100 56 76 38 99 53 95 65 -7 21 13 76 61 175 l39 77 108 -4 c62 -3
112 -9 115 -15 12 -19 46 -19 50 -1 4 22 114 128 124 122 5 -3 8 -14 8 -25z
m372 -33 c67 -52 77 -101 32 -155 -39 -47 -72 -42 -141 20 -32 29 -62 55 -66
59 -4 4 -2 12 6 18 10 9 24 3 62 -23 61 -44 95 -46 95 -7 0 19 -11 36 -35 57
-38 33 -46 65 -16 65 10 0 38 -16 63 -34z m-4463 -19 c-29 -24 -49 -57 -49
-81 0 -28 56 -19 94 14 46 41 56 21 16 -30 -37 -46 -83 -74 -109 -65 -10 3
-31 17 -45 30 -26 24 -26 26 -11 56 9 17 37 51 62 76 34 35 47 43 56 33 9 -9
6 -17 -14 -33z m3651 -33 c0 -3 -15 -38 -34 -77 -19 -40 -40 -91 -46 -114 -9
-30 -19 -43 -31 -43 -39 0 -271 58 -298 75 -6 3 -7 15 -2 27 14 40 278 133
389 137 12 1 22 -2 22 -5z m674 -97 c45 -43 56 -59 56 -85 0 -56 -63 -97 -111
-72 -40 22 -109 92 -109 111 0 30 20 23 60 -21 28 -30 44 -40 68 -40 27 0 32
4 32 24 0 23 -63 96 -82 96 -13 0 -9 28 5 33 22 9 24 8 81 -46z m-4188 32 c4
-6 -10 -26 -31 -46 -28 -26 -36 -39 -31 -56 3 -12 6 -25 6 -29 0 -5 11 -8 24
-8 26 0 47 16 73 56 17 27 31 31 39 10 3 -8 -9 -34 -28 -57 -54 -67 -114 -87
-157 -51 -19 15 -20 21 -10 57 11 38 82 135 99 135 5 0 12 -5 16 -11z m3023
-167 c-7 -20 -31 -73 -54 -117 -42 -78 -44 -80 -76 -77 -38 3 -169 51 -169 62
0 22 153 129 242 169 71 31 78 27 57 -37z m1018 16 c41 -41 53 -59 53 -83 0
-37 -8 -50 -43 -68 -42 -22 -89 -8 -141 41 -25 24 -46 47 -46 53 0 23 33 18
73 -11 84 -60 128 -21 57 50 -33 33 -39 44 -29 56 6 8 14 14 17 14 4 0 30 -23
59 -52z m-3903 34 c2 -4 -9 -27 -25 -51 -35 -53 -38 -87 -8 -96 16 -5 31 3 63
34 29 29 48 40 59 35 21 -8 22 -7 -7 -53 -32 -51 -82 -91 -113 -91 -36 0 -83
37 -83 64 0 35 26 91 61 131 31 35 44 42 53 27z m481 -37 c33 -25 63 -45 66
-45 4 0 14 -3 23 -6 10 -4 16 -1 16 9 0 8 20 22 46 32 51 19 185 38 196 27 17
-18 77 -152 83 -186 9 -53 23 -64 107 -87 90 -25 94 -28 69 -46 -37 -26 -54
-70 -47 -127 6 -41 12 -56 34 -70 15 -10 19 -15 9 -12 -10 3 -45 13 -78 21
-128 34 -464 191 -668 315 -100 60 -119 80 -77 80 70 0 146 62 146 119 0 11 3
21 8 21 4 0 34 -20 67 -45z m529 15 c51 -6 114 -19 140 -28 l46 -18 -108 -61
c-60 -34 -116 -63 -125 -65 -12 -2 -28 20 -57 80 -22 46 -40 88 -40 93 0 12
29 11 144 -1z m436 -110 c62 -33 170 -112 165 -121 -4 -5 -25 -19 -47 -30 -22
-11 -58 -34 -80 -49 l-40 -29 -39 49 c-46 59 -149 216 -149 228 0 10 155 -29
190 -48z m-1296 14 c13 -5 11 -12 -10 -46 -31 -49 -31 -105 1 -100 25 4 54 39
61 75 7 30 6 29 28 21 23 -9 20 -27 -14 -82 -30 -50 -63 -72 -104 -72 -30 0
-51 46 -41 92 6 26 54 118 62 118 1 0 8 -3 17 -6z m3628 -79 c15 -20 8 -73
-13 -100 -32 -39 -79 -28 -141 33 -27 25 -48 50 -48 54 0 22 31 16 58 -11 33
-33 72 -40 91 -17 15 18 -7 56 -46 81 -23 16 -24 17 -6 30 16 12 22 10 58 -23
22 -20 43 -41 47 -47z m-1726 8 c-6 -18 -36 -52 -138 -161 l-50 -53 -37 38
c-20 21 -58 54 -84 73 -25 19 -47 38 -47 41 0 9 105 46 167 59 53 12 185 28
191 24 2 -1 1 -11 -2 -21z m395 11 l70 -16 -60 -63 c-34 -35 -61 -67 -61 -72
0 -4 -4 -14 -9 -22 -8 -12 -19 -7 -63 25 -29 22 -69 52 -88 66 -19 14 -53 42
-75 62 l-40 35 128 1 c83 0 153 -6 198 -16z m-2147 -56 c-4 -13 -15 -34 -25
-47 -11 -13 -19 -34 -19 -47 0 -49 67 -23 107 42 11 17 12 17 12 -10 1 -20
-10 -39 -38 -67 -38 -38 -68 -47 -105 -33 -27 11 -20 77 15 134 32 52 67 70
53 28z m2348 -8 c38 -16 76 -30 82 -30 7 0 22 -9 33 -20 22 -20 22 -19 108 15
47 19 89 35 92 35 3 0 2 -16 -1 -35 -13 -67 40 -165 90 -165 20 0 18 -17 -3
-23 -10 -3 -45 -17 -78 -31 -33 -14 -73 -26 -90 -26 -16 0 -43 -7 -58 -15 -35
-18 -196 -61 -262 -70 -27 -3 -81 -12 -120 -20 -38 -7 -104 -16 -146 -18 l-77
-5 24 41 c36 63 31 110 -18 163 l-19 21 62 7 c34 3 82 6 105 6 46 0 50 6 45
61 -2 19 122 139 144 139 9 0 48 -13 87 -30z m924 -15 c43 -46 54 -70 54 -112
0 -37 -4 -44 -31 -58 -41 -22 -82 -12 -124 30 -35 33 -52 75 -40 96 5 7 20 -3
45 -30 39 -42 69 -51 89 -27 14 17 -3 59 -38 90 -11 10 -18 23 -15 27 10 16
37 9 60 -16z m-1763 -134 c20 -23 37 -46 37 -52 0 -7 37 -9 110 -7 61 2 110 2
110 0 0 -2 -7 -17 -16 -34 -22 -43 -13 -102 22 -139 15 -16 25 -31 22 -34 -12
-12 -458 -5 -578 9 -183 22 -239 33 -359 72 -9 3 5 17 37 37 70 42 82 86 47
169 -6 14 -2 15 32 7 21 -6 56 -12 78 -15 22 -3 52 -10 66 -15 22 -9 30 -5 60
23 19 18 69 49 110 69 l74 36 55 -42 c31 -24 73 -61 93 -84z m-1354 80 c11 -7
11 -16 -4 -54 -21 -57 -17 -91 12 -95 16 -2 28 6 43 30 11 18 20 41 20 50 0
24 14 30 35 15 16 -13 16 -17 -10 -68 -15 -30 -34 -62 -43 -71 -17 -20 -75
-24 -116 -8 -23 8 -26 15 -26 57 0 53 41 153 62 153 7 0 19 -4 27 -9z m2938
-38 c20 -25 49 -92 56 -130 13 -65 -80 -97 -136 -48 -24 22 -67 101 -67 126 0
22 27 6 44 -25 19 -36 65 -62 91 -52 18 7 12 44 -15 92 -13 23 -15 35 -7 43
15 15 17 14 34 -6z m-2761 -57 c3 -8 -4 -32 -15 -55 -28 -54 -28 -101 -1 -101
30 0 68 42 75 84 7 37 31 49 41 21 14 -36 -87 -165 -129 -165 -20 0 -67 46
-67 65 0 22 72 165 82 165 5 0 11 -6 14 -14z m2619 -84 c34 -76 28 -108 -24
-134 -30 -15 -37 -15 -62 -3 -33 17 -66 57 -85 104 -17 42 -18 38 6 51 17 9
21 6 33 -22 8 -18 26 -44 40 -57 22 -20 29 -22 42 -11 21 17 19 50 -5 80 -24
31 -25 46 -2 59 21 12 23 10 57 -67z m-2455 9 c0 -5 -7 -28 -15 -51 -14 -39
-14 -46 0 -67 9 -12 20 -23 25 -23 17 0 61 54 67 83 6 30 20 36 29 12 8 -20
-35 -126 -61 -147 -12 -11 -37 -18 -62 -18 -37 0 -44 4 -59 31 -9 19 -13 41
-9 58 12 50 56 131 70 131 8 0 15 -4 15 -9z m2259 -67 c33 -61 31 -111 -4
-142 -19 -16 -34 -21 -48 -16 -38 11 -77 57 -92 108 -18 60 -18 56 -1 56 7 0
27 -23 45 -51 24 -40 36 -50 54 -47 31 4 36 58 8 97 -11 15 -18 31 -14 35 15
14 29 3 52 -40z m-2109 -52 c-16 -60 -9 -85 22 -80 18 2 26 14 38 56 11 37 20
52 32 52 23 0 22 -4 -2 -83 -31 -100 -62 -120 -114 -72 -34 31 -34 70 0 136
31 62 41 58 24 -9z m1942 -23 c22 -68 16 -125 -15 -135 -55 -19 -97 12 -127
93 -25 66 -25 73 -1 73 13 0 22 -9 26 -27 3 -16 14 -38 25 -50 37 -46 74 -17
59 46 -19 82 5 83 33 0z m-1764 20 c-22 -12 -32 -67 -19 -102 15 -40 64 -39
81 2 6 16 9 43 6 59 -7 27 -5 28 24 24 16 -2 30 -7 30 -10 0 -3 -5 -34 -11
-69 -12 -69 -26 -82 -96 -98 -27 -5 -37 -2 -58 19 -29 29 -32 60 -10 134 14
46 19 52 43 52 23 -1 24 -2 10 -11z m1586 -56 c31 -91 9 -153 -53 -153 -48 1
-70 29 -94 123 l-15 57 24 0 c19 0 24 -5 24 -24 0 -30 36 -76 60 -76 28 0 39
78 14 97 -16 12 -17 15 -4 23 20 12 26 6 44 -47z m-1412 -27 c-5 -59 9 -96 37
-96 27 0 38 18 46 76 5 42 10 51 24 47 15 -4 16 -12 8 -71 -11 -83 -39 -115
-96 -110 -53 4 -68 40 -52 127 13 69 17 81 30 81 4 0 6 -24 3 -54z m1247 -93
c2 -67 -70 -96 -121 -48 -40 37 -63 157 -32 169 24 9 36 7 29 -5 -9 -13 14
-95 29 -108 7 -6 22 -7 35 -4 20 5 22 10 16 42 -4 19 -13 48 -21 62 -13 27
-13 28 14 31 25 3 28 0 39 -52 6 -30 12 -70 12 -87z m-1061 50 c4 -75 18 -92
56 -62 21 17 26 29 26 65 0 37 3 44 20 44 23 0 25 -16 9 -88 -19 -92 -94 -130
-133 -69 -18 28 -21 59 -12 125 11 71 30 63 34 -15z m869 -40 c4 -39 2 -63 -6
-67 -6 -4 -11 -16 -11 -28 0 -18 -4 -20 -32 -14 -58 12 -103 73 -110 151 -3
35 0 40 19 43 17 3 22 -3 28 -35 3 -21 15 -49 26 -63 l19 -25 20 25 c19 24 20
36 3 95 -5 19 -4 19 17 -1 16 -15 23 -37 27 -81z m-189 27 c14 -79 6 -125 -26
-146 -67 -44 -142 32 -142 143 0 47 2 53 21 53 18 0 20 -4 15 -25 -7 -29 26
-103 51 -112 10 -4 23 2 33 15 14 17 16 30 9 64 -12 62 -11 68 10 68 15 0 21
-11 29 -60z m-498 5 c0 -33 6 -51 22 -67 l21 -21 23 29 c19 23 22 36 17 66 -4
31 -2 38 11 38 13 0 16 -11 16 -59 0 -50 -4 -65 -26 -91 -33 -39 -77 -39 -107
1 -16 23 -18 36 -12 88 5 42 11 61 21 61 10 0 14 -13 14 -45z m190 5 c0 -54
18 -90 46 -90 27 0 34 17 34 81 0 51 13 66 24 27 10 -37 7 -115 -5 -142 -7
-14 -25 -29 -40 -35 -24 -8 -33 -6 -59 15 -29 25 -32 35 -45 137 -6 45 -5 47
19 47 24 0 26 -4 26 -40z"/>
<path d="M3060 4843 c-265 -25 -400 -71 -670 -229 -123 -72 -164 -102 -266
-197 -88 -81 -294 -332 -294 -357 0 -3 64 -6 142 -6 l143 0 60 64 c128 137
244 240 315 278 19 10 44 26 55 36 29 24 216 96 345 131 50 14 196 33 228 30
6 0 12 3 12 8 0 20 277 -4 416 -36 70 -16 214 -64 230 -76 6 -5 44 -25 85 -45
117 -58 269 -177 269 -210 0 -14 -80 -100 -481 -514 -136 -140 -275 -286 -310
-323 -104 -113 -99 -117 -99 94 l0 181 140 -3 139 -4 137 137 c75 75 134 142
132 148 -2 8 -270 12 -976 16 -544 2 -983 9 -996 14 -13 5 -27 6 -31 2 -32
-32 -171 -443 -179 -529 -20 -213 -11 -421 25 -559 43 -166 93 -310 134 -388
23 -45 59 -112 79 -149 43 -82 85 -135 191 -241 219 -218 399 -338 634 -420
340 -119 586 -126 1001 -29 128 30 249 86 365 170 39 27 117 84 175 126 135
97 315 272 369 358 22 36 41 71 41 76 0 6 24 62 54 124 90 191 134 337 152
509 14 139 14 161 -5 377 -23 265 -32 297 -150 543 -45 92 -77 142 -102 158
-18 12 -52 -15 -138 -110 l-42 -46 30 -54 c26 -47 61 -131 121 -293 42 -114
53 -200 47 -375 -6 -175 -23 -281 -63 -395 -14 -38 -36 -100 -49 -137 -13 -37
-32 -84 -43 -105 -10 -21 -26 -54 -36 -73 -32 -67 -143 -205 -217 -271 -94
-84 -323 -249 -345 -249 -9 0 -207 -76 -249 -96 -161 -76 -661 -46 -871 51
-17 8 -40 18 -50 22 -45 18 -257 158 -335 221 -199 161 -347 389 -420 645 -11
38 -17 72 -14 77 3 4 1 10 -5 12 -16 5 -37 140 -45 278 -5 93 -2 147 9 210 19
108 50 218 65 233 9 9 142 12 496 12 266 0 485 -2 488 -5 2 -3 9 -267 14 -588
6 -334 15 -588 20 -593 15 -15 304 6 314 23 5 7 6 83 2 168 -11 231 -10 487 2
499 7 7 64 -48 180 -176 94 -103 195 -215 226 -248 31 -33 97 -105 147 -160
l90 -99 182 2 c100 1 186 5 191 8 21 12 4 38 -75 116 -83 82 -174 178 -396
417 -142 153 -130 140 -159 180 l-23 33 109 111 c103 106 188 194 539 557 233
240 257 267 248 282 -42 74 -259 292 -374 378 -99 74 -370 196 -545 246 -83
23 -404 40 -535 27z"/>
<path d="M2400 2840 c0 -5 7 -10 15 -10 12 0 15 -15 15 -76 0 -47 4 -73 10
-69 6 3 10 37 10 76 0 55 3 69 15 69 8 0 15 5 15 10 0 6 -18 10 -40 10 -22 0
-40 -4 -40 -10z"/>
<path d="M2500 2765 l0 -85 34 0 c19 0 38 5 41 10 4 6 -7 10 -24 10 -28 0 -31
3 -31 30 0 26 4 30 26 30 14 0 23 4 19 10 -3 6 -15 10 -26 10 -14 0 -19 7 -19
25 0 20 5 25 25 25 14 0 25 5 25 10 0 6 -16 10 -35 10 l-35 0 0 -85z"/>
<path d="M2617 2843 c-3 -4 -8 -30 -12 -58 -3 -27 -9 -62 -11 -77 -7 -35 12
-37 20 -3 4 14 13 25 20 25 8 0 17 -11 20 -25 10 -38 29 -31 20 8 -4 17 -9 54
-13 82 -4 35 -11 51 -23 53 -9 2 -18 -1 -21 -5z m20 -92 c-16 -6 -19 8 -11 46
l8 38 5 -40 c3 -22 2 -42 -2 -44z"/>
<path d="M2700 2765 c0 -55 4 -84 10 -80 6 3 10 30 11 58 0 41 2 47 9 30 5
-13 12 -23 15 -23 3 0 10 10 15 23 7 17 9 11 9 -30 1 -28 6 -55 11 -58 6 -4
10 25 10 80 0 93 -13 109 -36 44 l-11 -34 -10 34 c-5 19 -14 36 -21 39 -9 3
-12 -20 -12 -83z"/>
<path d="M2310 2565 c0 -50 4 -85 10 -85 6 0 10 18 10 41 0 33 3 40 18 37 12
-2 18 -14 20 -41 2 -20 7 -37 13 -37 12 0 12 77 0 85 -6 3 -6 18 0 38 11 40
11 50 0 42 -5 -3 -12 -19 -16 -35 -9 -43 -35 -39 -35 5 0 19 -4 35 -10 35 -6
0 -10 -35 -10 -85z"/>
<path d="M2437 2643 c-2 -4 -7 -36 -11 -71 -4 -35 -10 -70 -13 -78 -3 -8 0
-14 5 -14 6 0 14 9 17 20 3 11 12 20 20 20 8 0 17 -9 20 -20 12 -37 25 -21 19
23 -17 113 -20 122 -36 125 -9 2 -18 -1 -21 -5z m23 -97 c-16 -16 -21 -1 -13
45 l7 44 8 -39 c5 -25 5 -43 -2 -50z"/>
<path d="M2514 2599 c13 -106 18 -120 35 -117 12 2 19 24 29 82 12 72 11 98
-4 84 -3 -3 -8 -31 -11 -62 -3 -31 -9 -59 -13 -61 -4 -3 -10 22 -14 55 -4 33
-12 62 -18 66 -8 5 -9 -9 -4 -47z"/>
<path d="M2611 2581 c-14 -85 -14 -101 -1 -101 6 0 10 9 10 20 0 13 7 20 20
20 13 0 20 -7 20 -20 0 -11 5 -20 10 -20 13 0 13 28 -2 106 -9 49 -16 64 -28
64 -13 0 -20 -16 -29 -69z m39 -6 c0 -19 -4 -35 -10 -35 -5 0 -10 16 -10 35 0
19 5 35 10 35 6 0 10 -16 10 -35z"/>
<path d="M2716 2634 c-21 -21 -22 -126 -2 -144 26 -20 61 -8 64 23 2 15 -1 27
-7 27 -6 0 -11 -9 -11 -21 0 -14 -5 -19 -17 -17 -15 3 -18 14 -18 63 0 49 3
60 18 63 12 2 17 -3 17 -17 0 -12 5 -21 10 -21 16 0 11 47 -6 54 -24 9 -31 8
-48 -10z"/>
<path d="M2800 2565 c0 -50 4 -85 10 -85 6 0 10 18 10 40 0 33 3 40 20 40 16
0 20 -7 20 -34 0 -41 17 -57 25 -24 8 37 -1 142 -13 146 -8 2 -12 -10 -12 -32
0 -29 -4 -36 -20 -36 -16 0 -20 7 -20 35 0 19 -4 35 -10 35 -6 0 -10 -35 -10
-85z"/>
</g>
</svg>
